<?xml version="1.0" encoding="utf-8" standalone="no"?>
<!DOCTYPE svg PUBLIC "-//W3C//DTD SVG 1.1//EN"
  "http://www.w3.org/Graphics/SVG/1.1/DTD/svg11.dtd">
<!-- Created with matplotlib (https://matplotlib.org/) -->
<svg height="345.6pt" version="1.1" viewBox="0 0 460.8 345.6" width="460.8pt" xmlns="http://www.w3.org/2000/svg" xmlns:xlink="http://www.w3.org/1999/xlink">
 <defs>
  <style type="text/css">
*{stroke-linecap:butt;stroke-linejoin:round;}
  </style>
 </defs>
 <g id="figure_1">
  <g id="patch_1">
   <path d="M 0 345.6 
L 460.8 345.6 
L 460.8 0 
L 0 0 
z
" style="fill:#ffffff;"/>
  </g>
  <g id="axes_1">
   <g id="patch_2">
    <path d="M 42.01 94.52 
L 447.48 94.52 
L 447.48 25.44 
L 42.01 25.44 
z
" style="fill:#ffffff;"/>
   </g>
   <g id="matplotlib.axis_1">
    <g id="xtick_1">
     <g id="line2d_1">
      <defs>
       <path d="M 0 0 
L 0 3.5 
" id="me8b4bbb1a9" style="stroke:#000000;stroke-width:0.8;"/>
      </defs>
      <g>
       <use style="stroke:#000000;stroke-width:0.8;" x="90.172936" xlink:href="#me8b4bbb1a9" y="94.52"/>
      </g>
     </g>
     <g id="text_1">
      <!-- 0.2620 -->
      <defs>
       <path d="M 31.78125 66.40625 
Q 24.171875 66.40625 20.328125 58.90625 
Q 16.5 51.421875 16.5 36.375 
Q 16.5 21.390625 20.328125 13.890625 
Q 24.171875 6.390625 31.78125 6.390625 
Q 39.453125 6.390625 43.28125 13.890625 
Q 47.125 21.390625 47.125 36.375 
Q 47.125 51.421875 43.28125 58.90625 
Q 39.453125 66.40625 31.78125 66.40625 
z
M 31.78125 74.21875 
Q 44.046875 74.21875 50.515625 64.515625 
Q 56.984375 54.828125 56.984375 36.375 
Q 56.984375 17.96875 50.515625 8.265625 
Q 44.046875 -1.421875 31.78125 -1.421875 
Q 19.53125 -1.421875 13.0625 8.265625 
Q 6.59375 17.96875 6.59375 36.375 
Q 6.59375 54.828125 13.0625 64.515625 
Q 19.53125 74.21875 31.78125 74.21875 
z
" id="DejaVuSans-48"/>
       <path d="M 10.6875 12.40625 
L 21 12.40625 
L 21 0 
L 10.6875 0 
z
" id="DejaVuSans-46"/>
       <path d="M 19.1875 8.296875 
L 53.609375 8.296875 
L 53.609375 0 
L 7.328125 0 
L 7.328125 8.296875 
Q 12.9375 14.109375 22.625 23.890625 
Q 32.328125 33.6875 34.8125 36.53125 
Q 39.546875 41.84375 41.421875 45.53125 
Q 43.3125 49.21875 43.3125 52.78125 
Q 43.3125 58.59375 39.234375 62.25 
Q 35.15625 65.921875 28.609375 65.921875 
Q 23.96875 65.921875 18.8125 64.3125 
Q 13.671875 62.703125 7.8125 59.421875 
L 7.8125 69.390625 
Q 13.765625 71.78125 18.9375 73 
Q 24.125 74.21875 28.421875 74.21875 
Q 39.75 74.21875 46.484375 68.546875 
Q 53.21875 62.890625 53.21875 53.421875 
Q 53.21875 48.921875 51.53125 44.890625 
Q 49.859375 40.875 45.40625 35.40625 
Q 44.1875 33.984375 37.640625 27.21875 
Q 31.109375 20.453125 19.1875 8.296875 
z
" id="DejaVuSans-50"/>
       <path d="M 33.015625 40.375 
Q 26.375 40.375 22.484375 35.828125 
Q 18.609375 31.296875 18.609375 23.390625 
Q 18.609375 15.53125 22.484375 10.953125 
Q 26.375 6.390625 33.015625 6.390625 
Q 39.65625 6.390625 43.53125 10.953125 
Q 47.40625 15.53125 47.40625 23.390625 
Q 47.40625 31.296875 43.53125 35.828125 
Q 39.65625 40.375 33.015625 40.375 
z
M 52.59375 71.296875 
L 52.59375 62.3125 
Q 48.875 64.0625 45.09375 64.984375 
Q 41.3125 65.921875 37.59375 65.921875 
Q 27.828125 65.921875 22.671875 59.328125 
Q 17.53125 52.734375 16.796875 39.40625 
Q 19.671875 43.65625 24.015625 45.921875 
Q 28.375 48.1875 33.59375 48.1875 
Q 44.578125 48.1875 50.953125 41.515625 
Q 57.328125 34.859375 57.328125 23.390625 
Q 57.328125 12.15625 50.6875 5.359375 
Q 44.046875 -1.421875 33.015625 -1.421875 
Q 20.359375 -1.421875 13.671875 8.265625 
Q 6.984375 17.96875 6.984375 36.375 
Q 6.984375 53.65625 15.1875 63.9375 
Q 23.390625 74.21875 37.203125 74.21875 
Q 40.921875 74.21875 44.703125 73.484375 
Q 48.484375 72.75 52.59375 71.296875 
z
" id="DejaVuSans-54"/>
      </defs>
      <g transform="translate(72.677623 109.118437)scale(0.1 -0.1)">
       <use xlink:href="#DejaVuSans-48"/>
       <use x="63.623047" xlink:href="#DejaVuSans-46"/>
       <use x="95.410156" xlink:href="#DejaVuSans-50"/>
       <use x="159.033203" xlink:href="#DejaVuSans-54"/>
       <use x="222.65625" xlink:href="#DejaVuSans-50"/>
       <use x="286.279297" xlink:href="#DejaVuSans-48"/>
      </g>
     </g>
    </g>
    <g id="xtick_2">
     <g id="line2d_2">
      <g>
       <use style="stroke:#000000;stroke-width:0.8;" x="164.277305" xlink:href="#me8b4bbb1a9" y="94.52"/>
      </g>
     </g>
     <g id="text_2">
      <!-- 0.2625 -->
      <defs>
       <path d="M 10.796875 72.90625 
L 49.515625 72.90625 
L 49.515625 64.59375 
L 19.828125 64.59375 
L 19.828125 46.734375 
Q 21.96875 47.46875 24.109375 47.828125 
Q 26.265625 48.1875 28.421875 48.1875 
Q 40.625 48.1875 47.75 41.5 
Q 54.890625 34.8125 54.890625 23.390625 
Q 54.890625 11.625 47.5625 5.09375 
Q 40.234375 -1.421875 26.90625 -1.421875 
Q 22.3125 -1.421875 17.546875 -0.640625 
Q 12.796875 0.140625 7.71875 1.703125 
L 7.71875 11.625 
Q 12.109375 9.234375 16.796875 8.0625 
Q 21.484375 6.890625 26.703125 6.890625 
Q 35.15625 6.890625 40.078125 11.328125 
Q 45.015625 15.765625 45.015625 23.390625 
Q 45.015625 31 40.078125 35.4375 
Q 35.15625 39.890625 26.703125 39.890625 
Q 22.75 39.890625 18.8125 39.015625 
Q 14.890625 38.140625 10.796875 36.28125 
z
" id="DejaVuSans-53"/>
      </defs>
      <g transform="translate(146.781992 109.118437)scale(0.1 -0.1)">
       <use xlink:href="#DejaVuSans-48"/>
       <use x="63.623047" xlink:href="#DejaVuSans-46"/>
       <use x="95.410156" xlink:href="#DejaVuSans-50"/>
       <use x="159.033203" xlink:href="#DejaVuSans-54"/>
       <use x="222.65625" xlink:href="#DejaVuSans-50"/>
       <use x="286.279297" xlink:href="#DejaVuSans-53"/>
      </g>
     </g>
    </g>
    <g id="xtick_3">
     <g id="line2d_3">
      <g>
       <use style="stroke:#000000;stroke-width:0.8;" x="238.381674" xlink:href="#me8b4bbb1a9" y="94.52"/>
      </g>
     </g>
     <g id="text_3">
      <!-- 0.2630 -->
      <defs>
       <path d="M 40.578125 39.3125 
Q 47.65625 37.796875 51.625 33 
Q 55.609375 28.21875 55.609375 21.1875 
Q 55.609375 10.40625 48.1875 4.484375 
Q 40.765625 -1.421875 27.09375 -1.421875 
Q 22.515625 -1.421875 17.65625 -0.515625 
Q 12.796875 0.390625 7.625 2.203125 
L 7.625 11.71875 
Q 11.71875 9.328125 16.59375 8.109375 
Q 21.484375 6.890625 26.8125 6.890625 
Q 36.078125 6.890625 40.9375 10.546875 
Q 45.796875 14.203125 45.796875 21.1875 
Q 45.796875 27.640625 41.28125 31.265625 
Q 36.765625 34.90625 28.71875 34.90625 
L 20.21875 34.90625 
L 20.21875 43.015625 
L 29.109375 43.015625 
Q 36.375 43.015625 40.234375 45.921875 
Q 44.09375 48.828125 44.09375 54.296875 
Q 44.09375 59.90625 40.109375 62.90625 
Q 36.140625 65.921875 28.71875 65.921875 
Q 24.65625 65.921875 20.015625 65.03125 
Q 15.375 64.15625 9.8125 62.3125 
L 9.8125 71.09375 
Q 15.4375 72.65625 20.34375 73.4375 
Q 25.25 74.21875 29.59375 74.21875 
Q 40.828125 74.21875 47.359375 69.109375 
Q 53.90625 64.015625 53.90625 55.328125 
Q 53.90625 49.265625 50.4375 45.09375 
Q 46.96875 40.921875 40.578125 39.3125 
z
" id="DejaVuSans-51"/>
      </defs>
      <g transform="translate(220.886361 109.118437)scale(0.1 -0.1)">
       <use xlink:href="#DejaVuSans-48"/>
       <use x="63.623047" xlink:href="#DejaVuSans-46"/>
       <use x="95.410156" xlink:href="#DejaVuSans-50"/>
       <use x="159.033203" xlink:href="#DejaVuSans-54"/>
       <use x="222.65625" xlink:href="#DejaVuSans-51"/>
       <use x="286.279297" xlink:href="#DejaVuSans-48"/>
      </g>
     </g>
    </g>
    <g id="xtick_4">
     <g id="line2d_4">
      <g>
       <use style="stroke:#000000;stroke-width:0.8;" x="312.486043" xlink:href="#me8b4bbb1a9" y="94.52"/>
      </g>
     </g>
     <g id="text_4">
      <!-- 0.2635 -->
      <g transform="translate(294.990731 109.118437)scale(0.1 -0.1)">
       <use xlink:href="#DejaVuSans-48"/>
       <use x="63.623047" xlink:href="#DejaVuSans-46"/>
       <use x="95.410156" xlink:href="#DejaVuSans-50"/>
       <use x="159.033203" xlink:href="#DejaVuSans-54"/>
       <use x="222.65625" xlink:href="#DejaVuSans-51"/>
       <use x="286.279297" xlink:href="#DejaVuSans-53"/>
      </g>
     </g>
    </g>
    <g id="xtick_5">
     <g id="line2d_5">
      <g>
       <use style="stroke:#000000;stroke-width:0.8;" x="386.590412" xlink:href="#me8b4bbb1a9" y="94.52"/>
      </g>
     </g>
     <g id="text_5">
      <!-- 0.2640 -->
      <defs>
       <path d="M 37.796875 64.3125 
L 12.890625 25.390625 
L 37.796875 25.390625 
z
M 35.203125 72.90625 
L 47.609375 72.90625 
L 47.609375 25.390625 
L 58.015625 25.390625 
L 58.015625 17.1875 
L 47.609375 17.1875 
L 47.609375 0 
L 37.796875 0 
L 37.796875 17.1875 
L 4.890625 17.1875 
L 4.890625 26.703125 
z
" id="DejaVuSans-52"/>
      </defs>
      <g transform="translate(369.0951 109.118437)scale(0.1 -0.1)">
       <use xlink:href="#DejaVuSans-48"/>
       <use x="63.623047" xlink:href="#DejaVuSans-46"/>
       <use x="95.410156" xlink:href="#DejaVuSans-50"/>
       <use x="159.033203" xlink:href="#DejaVuSans-54"/>
       <use x="222.65625" xlink:href="#DejaVuSans-52"/>
       <use x="286.279297" xlink:href="#DejaVuSans-48"/>
      </g>
     </g>
    </g>
   </g>
   <g id="matplotlib.axis_2">
    <g id="ytick_1">
     <g id="line2d_6">
      <defs>
       <path d="M 0 0 
L -3.5 0 
" id="m52a1998e00" style="stroke:#000000;stroke-width:0.8;"/>
      </defs>
      <g>
       <use style="stroke:#000000;stroke-width:0.8;" x="42.01" xlink:href="#m52a1998e00" y="92.447713"/>
      </g>
     </g>
     <g id="text_6">
      <!-- −1 -->
      <defs>
       <path d="M 10.59375 35.5 
L 73.1875 35.5 
L 73.1875 27.203125 
L 10.59375 27.203125 
z
" id="DejaVuSans-8722"/>
       <path d="M 12.40625 8.296875 
L 28.515625 8.296875 
L 28.515625 63.921875 
L 10.984375 60.40625 
L 10.984375 69.390625 
L 28.421875 72.90625 
L 38.28125 72.90625 
L 38.28125 8.296875 
L 54.390625 8.296875 
L 54.390625 0 
L 12.40625 0 
z
" id="DejaVuSans-49"/>
      </defs>
      <g transform="translate(20.267812 96.246932)scale(0.1 -0.1)">
       <use xlink:href="#DejaVuSans-8722"/>
       <use x="83.789062" xlink:href="#DejaVuSans-49"/>
      </g>
     </g>
    </g>
    <g id="ytick_2">
     <g id="line2d_7">
      <g>
       <use style="stroke:#000000;stroke-width:0.8;" x="42.01" xlink:href="#m52a1998e00" y="51.602981"/>
      </g>
     </g>
     <g id="text_7">
      <!-- 0 -->
      <g transform="translate(28.6475 55.402199)scale(0.1 -0.1)">
       <use xlink:href="#DejaVuSans-48"/>
      </g>
     </g>
    </g>
   </g>
   <g id="line2d_8">
    <path clip-path="url(#p88477b9eca)" d="M 60.440455 87.884544 
L 79.840933 68.556958 
L 99.241411 46.96094 
L 118.64189 35.290475 
L 138.042368 34.353995 
L 157.442847 35.721894 
L 176.843325 32.724573 
L 196.243804 28.58 
L 215.644282 33.108742 
L 235.044761 51.346761 
L 254.445239 75.89421 
L 273.845718 91.38 
L 293.246196 87.367234 
L 312.646675 67.437736 
L 332.047153 45.719878 
L 351.447632 34.309471 
L 370.84811 33.768005 
L 390.248589 35.514057 
L 409.649067 32.907264 
L 429.049545 29.235651 
" style="fill:none;stroke:#1f77b4;stroke-linecap:square;stroke-width:1.5;"/>
   </g>
   <g id="patch_3">
    <path d="M 42.01 94.52 
L 42.01 25.44 
" style="fill:none;stroke:#000000;stroke-linecap:square;stroke-linejoin:miter;stroke-width:0.8;"/>
   </g>
   <g id="patch_4">
    <path d="M 447.48 94.52 
L 447.48 25.44 
" style="fill:none;stroke:#000000;stroke-linecap:square;stroke-linejoin:miter;stroke-width:0.8;"/>
   </g>
   <g id="patch_5">
    <path d="M 42.01 94.52 
L 447.48 94.52 
" style="fill:none;stroke:#000000;stroke-linecap:square;stroke-linejoin:miter;stroke-width:0.8;"/>
   </g>
   <g id="patch_6">
    <path d="M 42.01 25.44 
L 447.48 25.44 
" style="fill:none;stroke:#000000;stroke-linecap:square;stroke-linejoin:miter;stroke-width:0.8;"/>
   </g>
   <g id="text_8">
    <!-- Original signal -->
    <defs>
     <path d="M 39.40625 66.21875 
Q 28.65625 66.21875 22.328125 58.203125 
Q 16.015625 50.203125 16.015625 36.375 
Q 16.015625 22.609375 22.328125 14.59375 
Q 28.65625 6.59375 39.40625 6.59375 
Q 50.140625 6.59375 56.421875 14.59375 
Q 62.703125 22.609375 62.703125 36.375 
Q 62.703125 50.203125 56.421875 58.203125 
Q 50.140625 66.21875 39.40625 66.21875 
z
M 39.40625 74.21875 
Q 54.734375 74.21875 63.90625 63.9375 
Q 73.09375 53.65625 73.09375 36.375 
Q 73.09375 19.140625 63.90625 8.859375 
Q 54.734375 -1.421875 39.40625 -1.421875 
Q 24.03125 -1.421875 14.8125 8.828125 
Q 5.609375 19.09375 5.609375 36.375 
Q 5.609375 53.65625 14.8125 63.9375 
Q 24.03125 74.21875 39.40625 74.21875 
z
" id="DejaVuSans-79"/>
     <path d="M 41.109375 46.296875 
Q 39.59375 47.171875 37.8125 47.578125 
Q 36.03125 48 33.890625 48 
Q 26.265625 48 22.1875 43.046875 
Q 18.109375 38.09375 18.109375 28.8125 
L 18.109375 0 
L 9.078125 0 
L 9.078125 54.6875 
L 18.109375 54.6875 
L 18.109375 46.1875 
Q 20.953125 51.171875 25.484375 53.578125 
Q 30.03125 56 36.53125 56 
Q 37.453125 56 38.578125 55.875 
Q 39.703125 55.765625 41.0625 55.515625 
z
" id="DejaVuSans-114"/>
     <path d="M 9.421875 54.6875 
L 18.40625 54.6875 
L 18.40625 0 
L 9.421875 0 
z
M 9.421875 75.984375 
L 18.40625 75.984375 
L 18.40625 64.59375 
L 9.421875 64.59375 
z
" id="DejaVuSans-105"/>
     <path d="M 45.40625 27.984375 
Q 45.40625 37.75 41.375 43.109375 
Q 37.359375 48.484375 30.078125 48.484375 
Q 22.859375 48.484375 18.828125 43.109375 
Q 14.796875 37.75 14.796875 27.984375 
Q 14.796875 18.265625 18.828125 12.890625 
Q 22.859375 7.515625 30.078125 7.515625 
Q 37.359375 7.515625 41.375 12.890625 
Q 45.40625 18.265625 45.40625 27.984375 
z
M 54.390625 6.78125 
Q 54.390625 -7.171875 48.1875 -13.984375 
Q 42 -20.796875 29.203125 -20.796875 
Q 24.46875 -20.796875 20.265625 -20.09375 
Q 16.0625 -19.390625 12.109375 -17.921875 
L 12.109375 -9.1875 
Q 16.0625 -11.328125 19.921875 -12.34375 
Q 23.78125 -13.375 27.78125 -13.375 
Q 36.625 -13.375 41.015625 -8.765625 
Q 45.40625 -4.15625 45.40625 5.171875 
L 45.40625 9.625 
Q 42.625 4.78125 38.28125 2.390625 
Q 33.9375 0 27.875 0 
Q 17.828125 0 11.671875 7.65625 
Q 5.515625 15.328125 5.515625 27.984375 
Q 5.515625 40.671875 11.671875 48.328125 
Q 17.828125 56 27.875 56 
Q 33.9375 56 38.28125 53.609375 
Q 42.625 51.21875 45.40625 46.390625 
L 45.40625 54.6875 
L 54.390625 54.6875 
z
" id="DejaVuSans-103"/>
     <path d="M 54.890625 33.015625 
L 54.890625 0 
L 45.90625 0 
L 45.90625 32.71875 
Q 45.90625 40.484375 42.875 44.328125 
Q 39.84375 48.1875 33.796875 48.1875 
Q 26.515625 48.1875 22.3125 43.546875 
Q 18.109375 38.921875 18.109375 30.90625 
L 18.109375 0 
L 9.078125 0 
L 9.078125 54.6875 
L 18.109375 54.6875 
L 18.109375 46.1875 
Q 21.34375 51.125 25.703125 53.5625 
Q 30.078125 56 35.796875 56 
Q 45.21875 56 50.046875 50.171875 
Q 54.890625 44.34375 54.890625 33.015625 
z
" id="DejaVuSans-110"/>
     <path d="M 34.28125 27.484375 
Q 23.390625 27.484375 19.1875 25 
Q 14.984375 22.515625 14.984375 16.5 
Q 14.984375 11.71875 18.140625 8.90625 
Q 21.296875 6.109375 26.703125 6.109375 
Q 34.1875 6.109375 38.703125 11.40625 
Q 43.21875 16.703125 43.21875 25.484375 
L 43.21875 27.484375 
z
M 52.203125 31.203125 
L 52.203125 0 
L 43.21875 0 
L 43.21875 8.296875 
Q 40.140625 3.328125 35.546875 0.953125 
Q 30.953125 -1.421875 24.3125 -1.421875 
Q 15.921875 -1.421875 10.953125 3.296875 
Q 6 8.015625 6 15.921875 
Q 6 25.140625 12.171875 29.828125 
Q 18.359375 34.515625 30.609375 34.515625 
L 43.21875 34.515625 
L 43.21875 35.40625 
Q 43.21875 41.609375 39.140625 45 
Q 35.0625 48.390625 27.6875 48.390625 
Q 23 48.390625 18.546875 47.265625 
Q 14.109375 46.140625 10.015625 43.890625 
L 10.015625 52.203125 
Q 14.9375 54.109375 19.578125 55.046875 
Q 24.21875 56 28.609375 56 
Q 40.484375 56 46.34375 49.84375 
Q 52.203125 43.703125 52.203125 31.203125 
z
" id="DejaVuSans-97"/>
     <path d="M 9.421875 75.984375 
L 18.40625 75.984375 
L 18.40625 0 
L 9.421875 0 
z
" id="DejaVuSans-108"/>
     <path id="DejaVuSans-32"/>
     <path d="M 44.28125 53.078125 
L 44.28125 44.578125 
Q 40.484375 46.53125 36.375 47.5 
Q 32.28125 48.484375 27.875 48.484375 
Q 21.1875 48.484375 17.84375 46.4375 
Q 14.5 44.390625 14.5 40.28125 
Q 14.5 37.15625 16.890625 35.375 
Q 19.28125 33.59375 26.515625 31.984375 
L 29.59375 31.296875 
Q 39.15625 29.25 43.1875 25.515625 
Q 47.21875 21.78125 47.21875 15.09375 
Q 47.21875 7.46875 41.1875 3.015625 
Q 35.15625 -1.421875 24.609375 -1.421875 
Q 20.21875 -1.421875 15.453125 -0.5625 
Q 10.6875 0.296875 5.421875 2 
L 5.421875 11.28125 
Q 10.40625 8.6875 15.234375 7.390625 
Q 20.0625 6.109375 24.8125 6.109375 
Q 31.15625 6.109375 34.5625 8.28125 
Q 37.984375 10.453125 37.984375 14.40625 
Q 37.984375 18.0625 35.515625 20.015625 
Q 33.0625 21.96875 24.703125 23.78125 
L 21.578125 24.515625 
Q 13.234375 26.265625 9.515625 29.90625 
Q 5.8125 33.546875 5.8125 39.890625 
Q 5.8125 47.609375 11.28125 51.796875 
Q 16.75 56 26.8125 56 
Q 31.78125 56 36.171875 55.265625 
Q 40.578125 54.546875 44.28125 53.078125 
z
" id="DejaVuSans-115"/>
    </defs>
    <g transform="translate(201.611563 19.44)scale(0.12 -0.12)">
     <use xlink:href="#DejaVuSans-79"/>
     <use x="78.710938" xlink:href="#DejaVuSans-114"/>
     <use x="119.824219" xlink:href="#DejaVuSans-105"/>
     <use x="147.607422" xlink:href="#DejaVuSans-103"/>
     <use x="211.083984" xlink:href="#DejaVuSans-105"/>
     <use x="238.867188" xlink:href="#DejaVuSans-110"/>
     <use x="302.246094" xlink:href="#DejaVuSans-97"/>
     <use x="363.525391" xlink:href="#DejaVuSans-108"/>
     <use x="391.308594" xlink:href="#DejaVuSans-32"/>
     <use x="423.095703" xlink:href="#DejaVuSans-115"/>
     <use x="475.195312" xlink:href="#DejaVuSans-105"/>
     <use x="502.978516" xlink:href="#DejaVuSans-103"/>
     <use x="566.455078" xlink:href="#DejaVuSans-110"/>
     <use x="629.833984" xlink:href="#DejaVuSans-97"/>
     <use x="691.113281" xlink:href="#DejaVuSans-108"/>
    </g>
   </g>
  </g>
  <g id="axes_2">
   <g id="patch_7">
    <path d="M 42.01 206.12 
L 447.48 206.12 
L 447.48 137.04 
L 42.01 137.04 
z
" style="fill:#ffffff;"/>
   </g>
   <g id="matplotlib.axis_3">
    <g id="xtick_6">
     <g id="line2d_9">
      <g>
       <use style="stroke:#000000;stroke-width:0.8;" x="60.440455" xlink:href="#me8b4bbb1a9" y="206.12"/>
      </g>
     </g>
     <g id="text_9">
      <!-- 0.0000 -->
      <g transform="translate(42.945142 220.718437)scale(0.1 -0.1)">
       <use xlink:href="#DejaVuSans-48"/>
       <use x="63.623047" xlink:href="#DejaVuSans-46"/>
       <use x="95.410156" xlink:href="#DejaVuSans-48"/>
       <use x="159.033203" xlink:href="#DejaVuSans-48"/>
       <use x="222.65625" xlink:href="#DejaVuSans-48"/>
       <use x="286.279297" xlink:href="#DejaVuSans-48"/>
      </g>
     </g>
    </g>
    <g id="xtick_7">
     <g id="line2d_10">
      <g>
       <use style="stroke:#000000;stroke-width:0.8;" x="130.894648" xlink:href="#me8b4bbb1a9" y="206.12"/>
      </g>
     </g>
     <g id="text_10">
      <!-- 0.0005 -->
      <g transform="translate(113.399335 220.718437)scale(0.1 -0.1)">
       <use xlink:href="#DejaVuSans-48"/>
       <use x="63.623047" xlink:href="#DejaVuSans-46"/>
       <use x="95.410156" xlink:href="#DejaVuSans-48"/>
       <use x="159.033203" xlink:href="#DejaVuSans-48"/>
       <use x="222.65625" xlink:href="#DejaVuSans-48"/>
       <use x="286.279297" xlink:href="#DejaVuSans-53"/>
      </g>
     </g>
    </g>
    <g id="xtick_8">
     <g id="line2d_11">
      <g>
       <use style="stroke:#000000;stroke-width:0.8;" x="201.348841" xlink:href="#me8b4bbb1a9" y="206.12"/>
      </g>
     </g>
     <g id="text_11">
      <!-- 0.0010 -->
      <g transform="translate(183.853528 220.718437)scale(0.1 -0.1)">
       <use xlink:href="#DejaVuSans-48"/>
       <use x="63.623047" xlink:href="#DejaVuSans-46"/>
       <use x="95.410156" xlink:href="#DejaVuSans-48"/>
       <use x="159.033203" xlink:href="#DejaVuSans-48"/>
       <use x="222.65625" xlink:href="#DejaVuSans-49"/>
       <use x="286.279297" xlink:href="#DejaVuSans-48"/>
      </g>
     </g>
    </g>
    <g id="xtick_9">
     <g id="line2d_12">
      <g>
       <use style="stroke:#000000;stroke-width:0.8;" x="271.803034" xlink:href="#me8b4bbb1a9" y="206.12"/>
      </g>
     </g>
     <g id="text_12">
      <!-- 0.0015 -->
      <g transform="translate(254.307721 220.718437)scale(0.1 -0.1)">
       <use xlink:href="#DejaVuSans-48"/>
       <use x="63.623047" xlink:href="#DejaVuSans-46"/>
       <use x="95.410156" xlink:href="#DejaVuSans-48"/>
       <use x="159.033203" xlink:href="#DejaVuSans-48"/>
       <use x="222.65625" xlink:href="#DejaVuSans-49"/>
       <use x="286.279297" xlink:href="#DejaVuSans-53"/>
      </g>
     </g>
    </g>
    <g id="xtick_10">
     <g id="line2d_13">
      <g>
       <use style="stroke:#000000;stroke-width:0.8;" x="342.257227" xlink:href="#me8b4bbb1a9" y="206.12"/>
      </g>
     </g>
     <g id="text_13">
      <!-- 0.0020 -->
      <g transform="translate(324.761914 220.718437)scale(0.1 -0.1)">
       <use xlink:href="#DejaVuSans-48"/>
       <use x="63.623047" xlink:href="#DejaVuSans-46"/>
       <use x="95.410156" xlink:href="#DejaVuSans-48"/>
       <use x="159.033203" xlink:href="#DejaVuSans-48"/>
       <use x="222.65625" xlink:href="#DejaVuSans-50"/>
       <use x="286.279297" xlink:href="#DejaVuSans-48"/>
      </g>
     </g>
    </g>
    <g id="xtick_11">
     <g id="line2d_14">
      <g>
       <use style="stroke:#000000;stroke-width:0.8;" x="412.71142" xlink:href="#me8b4bbb1a9" y="206.12"/>
      </g>
     </g>
     <g id="text_14">
      <!-- 0.0025 -->
      <g transform="translate(395.216107 220.718437)scale(0.1 -0.1)">
       <use xlink:href="#DejaVuSans-48"/>
       <use x="63.623047" xlink:href="#DejaVuSans-46"/>
       <use x="95.410156" xlink:href="#DejaVuSans-48"/>
       <use x="159.033203" xlink:href="#DejaVuSans-48"/>
       <use x="222.65625" xlink:href="#DejaVuSans-50"/>
       <use x="286.279297" xlink:href="#DejaVuSans-53"/>
      </g>
     </g>
    </g>
   </g>
   <g id="matplotlib.axis_4">
    <g id="ytick_3">
     <g id="line2d_15">
      <g>
       <use style="stroke:#000000;stroke-width:0.8;" x="42.01" xlink:href="#m52a1998e00" y="202.98"/>
      </g>
     </g>
     <g id="text_15">
      <!-- −1 -->
      <g transform="translate(20.267812 206.779219)scale(0.1 -0.1)">
       <use xlink:href="#DejaVuSans-8722"/>
       <use x="83.789062" xlink:href="#DejaVuSans-49"/>
      </g>
     </g>
    </g>
    <g id="ytick_4">
     <g id="line2d_16">
      <g>
       <use style="stroke:#000000;stroke-width:0.8;" x="42.01" xlink:href="#m52a1998e00" y="171.58"/>
      </g>
     </g>
     <g id="text_16">
      <!-- 0 -->
      <g transform="translate(28.6475 175.379219)scale(0.1 -0.1)">
       <use xlink:href="#DejaVuSans-48"/>
      </g>
     </g>
    </g>
    <g id="ytick_5">
     <g id="line2d_17">
      <g>
       <use style="stroke:#000000;stroke-width:0.8;" x="42.01" xlink:href="#m52a1998e00" y="140.18"/>
      </g>
     </g>
     <g id="text_17">
      <!-- 1 -->
      <g transform="translate(28.6475 143.979219)scale(0.1 -0.1)">
       <use xlink:href="#DejaVuSans-49"/>
      </g>
     </g>
    </g>
   </g>
   <g id="line2d_18">
    <path clip-path="url(#pf11db360e7)" d="M 60.440455 202.98 
L 61.88146 202.98 
L 62.169661 140.18 
L 62.457862 202.98 
L 62.746063 202.98 
L 63.034264 140.18 
L 63.322465 140.18 
L 63.610666 202.98 
L 63.898867 140.18 
L 64.187068 202.98 
L 64.76347 202.98 
L 65.051671 140.18 
L 65.339872 202.98 
L 67.357279 202.98 
L 67.64548 140.18 
L 67.933681 202.98 
L 69.951088 202.98 
L 70.239289 140.18 
L 70.52749 202.98 
L 71.103892 202.98 
L 71.392093 140.18 
L 71.680294 202.98 
L 72.256696 202.98 
L 72.544897 140.18 
L 72.833098 202.98 
L 75.138706 202.98 
L 75.426907 140.18 
L 75.715108 202.98 
L 76.003309 140.18 
L 76.29151 202.98 
L 77.156113 202.98 
L 77.444314 140.18 
L 78.308917 140.18 
L 78.597118 202.98 
L 78.885319 202.98 
L 79.17352 140.18 
L 79.461721 202.98 
L 79.749922 202.98 
L 80.038123 140.18 
L 80.326324 202.98 
L 80.614525 140.18 
L 81.190927 140.18 
L 81.479128 202.98 
L 82.05553 202.98 
L 82.343731 140.18 
L 82.631932 140.18 
L 82.920133 202.98 
L 84.649339 202.98 
L 84.93754 140.18 
L 85.225741 202.98 
L 85.513942 202.98 
L 85.802143 140.18 
L 86.090344 202.98 
L 86.378545 202.98 
L 86.666746 140.18 
L 87.243148 140.18 
L 87.531349 202.98 
L 88.395952 202.98 
L 88.684153 140.18 
L 89.260555 140.18 
L 89.548756 202.98 
L 89.836957 140.18 
L 90.125159 202.98 
L 90.41336 140.18 
L 91.277963 140.18 
L 91.566164 202.98 
L 92.430767 202.98 
L 92.718968 140.18 
L 93.007169 202.98 
L 93.29537 202.98 
L 93.583571 140.18 
L 94.448174 140.18 
L 94.736375 202.98 
L 95.024576 140.18 
L 95.312777 140.18 
L 95.600978 202.98 
L 95.889179 140.18 
L 96.17738 202.98 
L 96.753782 202.98 
L 97.041983 140.18 
L 97.330184 140.18 
L 97.618385 202.98 
L 97.906586 140.18 
L 98.194787 202.98 
L 99.923993 202.98 
L 100.212194 140.18 
L 102.517802 140.18 
L 102.806003 202.98 
L 103.094204 140.18 
L 103.382405 202.98 
L 103.958807 202.98 
L 104.247008 140.18 
L 105.399812 140.18 
L 105.688013 202.98 
L 105.976214 140.18 
L 106.264415 140.18 
L 106.552616 202.98 
L 106.840817 140.18 
L 107.129018 140.18 
L 107.417219 202.98 
L 107.70542 202.98 
L 107.993621 140.18 
L 108.281822 202.98 
L 108.570023 202.98 
L 108.858224 140.18 
L 109.146425 140.18 
L 109.434626 202.98 
L 109.722827 140.18 
L 110.299229 140.18 
L 110.58743 202.98 
L 110.875631 140.18 
L 111.740234 140.18 
L 112.028435 202.98 
L 112.316636 140.18 
L 113.181239 140.18 
L 113.46944 202.98 
L 113.757641 140.18 
L 114.334043 140.18 
L 114.622244 202.98 
L 115.198646 202.98 
L 115.486847 140.18 
L 115.775048 202.98 
L 116.063249 140.18 
L 117.504254 140.18 
L 117.792455 202.98 
L 118.080656 140.18 
L 118.368857 202.98 
L 118.657058 140.18 
L 118.945259 202.98 
L 119.23346 140.18 
L 120.386264 140.18 
L 120.674465 202.98 
L 120.962667 140.18 
L 121.250868 202.98 
L 121.82727 202.98 
L 122.115471 140.18 
L 122.403672 202.98 
L 122.691873 140.18 
L 122.980074 202.98 
L 123.268275 140.18 
L 123.556476 140.18 
L 123.844677 202.98 
L 124.132878 140.18 
L 124.70928 140.18 
L 124.997481 202.98 
L 125.285682 202.98 
L 125.573883 140.18 
L 125.862084 202.98 
L 126.150285 140.18 
L 129.896898 140.18 
L 130.185099 202.98 
L 130.4733 140.18 
L 130.761501 202.98 
L 131.049702 140.18 
L 131.914305 140.18 
L 132.202506 202.98 
L 132.490707 140.18 
L 133.067109 140.18 
L 133.35531 202.98 
L 133.643511 140.18 
L 133.931712 140.18 
L 134.219913 202.98 
L 134.508114 140.18 
L 134.796315 202.98 
L 135.084516 140.18 
L 135.949119 140.18 
L 136.23732 202.98 
L 136.525521 202.98 
L 136.813722 140.18 
L 137.101923 140.18 
L 137.390124 202.98 
L 137.678325 140.18 
L 138.254727 140.18 
L 138.542928 202.98 
L 138.831129 140.18 
L 139.11933 140.18 
L 139.407531 202.98 
L 139.695732 202.98 
L 139.983933 140.18 
L 140.272134 202.98 
L 140.560335 140.18 
L 141.713139 140.18 
L 142.00134 202.98 
L 142.289541 140.18 
L 142.577742 140.18 
L 142.865943 202.98 
L 143.154144 202.98 
L 143.442345 140.18 
L 143.730546 202.98 
L 144.018747 140.18 
L 144.88335 140.18 
L 145.171551 202.98 
L 145.459752 140.18 
L 145.747953 202.98 
L 146.036154 202.98 
L 146.324355 140.18 
L 147.188958 140.18 
L 147.477159 202.98 
L 147.76536 140.18 
L 150.64737 140.18 
L 150.935571 202.98 
L 151.223772 140.18 
L 151.511973 140.18 
L 151.800174 202.98 
L 152.088376 140.18 
L 152.376577 202.98 
L 152.664778 140.18 
L 152.952979 202.98 
L 153.24118 140.18 
L 153.529381 140.18 
L 153.817582 202.98 
L 154.105783 202.98 
L 154.393984 140.18 
L 154.682185 202.98 
L 154.970386 140.18 
L 155.258587 202.98 
L 155.546788 140.18 
L 156.411391 140.18 
L 156.699592 202.98 
L 156.987793 140.18 
L 157.275994 140.18 
L 157.564195 202.98 
L 157.852396 140.18 
L 158.716999 140.18 
L 159.0052 202.98 
L 159.293401 140.18 
L 159.581602 140.18 
L 159.869803 202.98 
L 160.158004 140.18 
L 160.446205 202.98 
L 160.734406 140.18 
L 161.022607 202.98 
L 161.310808 140.18 
L 161.88721 140.18 
L 162.175411 202.98 
L 162.463612 202.98 
L 162.751813 140.18 
L 163.040014 140.18 
L 163.328215 202.98 
L 163.616416 140.18 
L 163.904617 202.98 
L 164.192818 140.18 
L 165.345622 140.18 
L 165.633823 202.98 
L 165.922024 140.18 
L 167.939431 140.18 
L 168.227632 202.98 
L 168.515833 202.98 
L 168.804034 140.18 
L 169.380436 140.18 
L 169.668637 202.98 
L 169.956838 140.18 
L 170.821441 140.18 
L 171.109642 202.98 
L 171.397843 202.98 
L 171.686044 140.18 
L 172.262446 140.18 
L 172.550647 202.98 
L 172.838848 140.18 
L 173.127049 202.98 
L 173.41525 140.18 
L 175.720858 140.18 
L 176.009059 202.98 
L 176.29726 140.18 
L 176.873662 140.18 
L 177.161863 202.98 
L 177.738265 202.98 
L 178.026466 140.18 
L 178.314667 202.98 
L 178.891069 202.98 
L 179.17927 140.18 
L 180.332074 140.18 
L 180.620275 202.98 
L 180.908476 140.18 
L 181.196677 140.18 
L 181.484878 202.98 
L 181.773079 140.18 
L 182.06128 140.18 
L 182.349481 202.98 
L 182.637682 140.18 
L 183.502286 140.18 
L 183.790487 202.98 
L 184.078688 140.18 
L 184.366889 202.98 
L 184.65509 140.18 
L 185.807894 140.18 
L 186.096095 202.98 
L 186.384296 202.98 
L 186.672497 140.18 
L 186.960698 140.18 
L 187.248899 202.98 
L 187.5371 202.98 
L 187.825301 140.18 
L 188.401703 140.18 
L 188.689904 202.98 
L 188.978105 202.98 
L 189.266306 140.18 
L 191.860115 140.18 
L 192.148316 202.98 
L 192.436517 202.98 
L 192.724718 140.18 
L 193.012919 202.98 
L 193.30112 140.18 
L 193.589321 202.98 
L 193.877522 140.18 
L 194.165723 202.98 
L 194.453924 140.18 
L 197.912336 140.18 
L 198.200537 202.98 
L 198.488738 202.98 
L 198.776939 140.18 
L 199.353341 140.18 
L 199.641542 202.98 
L 200.506145 202.98 
L 200.794346 140.18 
L 201.082547 140.18 
L 201.370748 202.98 
L 201.658949 140.18 
L 202.523552 140.18 
L 202.811753 202.98 
L 203.099954 140.18 
L 203.388155 140.18 
L 203.676356 202.98 
L 203.964557 140.18 
L 204.252758 140.18 
L 204.540959 202.98 
L 205.117361 202.98 
L 205.405562 140.18 
L 205.981964 140.18 
L 206.270165 202.98 
L 206.558366 140.18 
L 209.152175 140.18 
L 209.440376 202.98 
L 210.304979 202.98 
L 210.59318 140.18 
L 210.881381 202.98 
L 211.169582 140.18 
L 212.322386 140.18 
L 212.610587 202.98 
L 212.898788 202.98 
L 213.186989 140.18 
L 213.763391 140.18 
L 214.051593 202.98 
L 214.339794 140.18 
L 214.627995 202.98 
L 214.916196 140.18 
L 215.780799 140.18 
L 216.069 202.98 
L 216.357201 140.18 
L 217.221804 140.18 
L 217.510005 202.98 
L 217.798206 202.98 
L 218.086407 140.18 
L 219.239211 140.18 
L 219.527412 202.98 
L 219.815613 140.18 
L 220.103814 140.18 
L 220.392015 202.98 
L 220.680216 202.98 
L 220.968417 140.18 
L 221.544819 140.18 
L 221.83302 202.98 
L 222.121221 140.18 
L 222.409422 202.98 
L 222.697623 140.18 
L 222.985824 202.98 
L 223.274025 202.98 
L 223.562226 140.18 
L 223.850427 202.98 
L 224.138628 140.18 
L 224.71503 140.18 
L 225.003231 202.98 
L 225.291432 140.18 
L 225.579633 140.18 
L 225.867834 202.98 
L 226.156035 140.18 
L 226.444236 202.98 
L 226.732437 140.18 
L 228.461643 140.18 
L 228.749844 202.98 
L 229.902648 202.98 
L 230.190849 140.18 
L 230.47905 202.98 
L 230.767251 140.18 
L 231.055452 140.18 
L 231.343653 202.98 
L 231.631854 140.18 
L 231.920055 202.98 
L 232.208256 140.18 
L 232.496457 202.98 
L 233.937462 202.98 
L 234.225663 140.18 
L 234.802065 140.18 
L 235.090266 202.98 
L 235.378467 140.18 
L 235.666668 140.18 
L 235.954869 202.98 
L 236.819472 202.98 
L 237.107673 140.18 
L 237.395874 140.18 
L 237.684075 202.98 
L 237.972276 140.18 
L 238.260477 202.98 
L 238.548678 202.98 
L 238.836879 140.18 
L 239.12508 202.98 
L 240.277884 202.98 
L 240.566085 140.18 
L 240.854286 202.98 
L 241.142487 140.18 
L 241.430688 202.98 
L 242.583492 202.98 
L 242.871693 140.18 
L 243.159894 202.98 
L 243.736296 202.98 
L 244.024497 140.18 
L 244.312698 202.98 
L 244.600899 140.18 
L 244.889101 140.18 
L 245.177302 202.98 
L 245.753704 202.98 
L 246.041905 140.18 
L 246.330106 140.18 
L 246.618307 202.98 
L 247.48291 202.98 
L 247.771111 140.18 
L 248.059312 202.98 
L 248.347513 140.18 
L 248.635714 202.98 
L 249.500317 202.98 
L 249.788518 140.18 
L 250.076719 202.98 
L 251.229523 202.98 
L 251.517724 140.18 
L 251.805925 202.98 
L 252.094126 202.98 
L 252.382327 140.18 
L 252.670528 202.98 
L 253.823332 202.98 
L 254.111533 140.18 
L 254.399734 202.98 
L 256.12894 202.98 
L 256.417141 140.18 
L 256.705342 202.98 
L 257.858146 202.98 
L 258.146347 140.18 
L 258.434548 140.18 
L 258.722749 202.98 
L 263.045764 202.98 
L 263.333965 140.18 
L 263.622166 202.98 
L 264.198568 202.98 
L 264.486769 140.18 
L 264.77497 202.98 
L 265.639573 202.98 
L 265.927774 140.18 
L 266.215975 140.18 
L 266.504176 202.98 
L 266.792377 140.18 
L 267.080578 202.98 
L 267.945181 202.98 
L 268.233382 140.18 
L 268.521583 202.98 
L 271.403593 202.98 
L 271.691794 140.18 
L 271.979995 202.98 
L 277.744016 202.98 
L 278.032217 140.18 
L 278.320418 202.98 
L 278.608619 202.98 
L 278.89682 140.18 
L 279.185021 202.98 
L 280.626026 202.98 
L 280.914227 140.18 
L 281.202428 202.98 
L 283.796237 202.98 
L 284.084438 140.18 
L 284.372639 140.18 
L 284.66084 202.98 
L 285.237242 202.98 
L 285.525443 140.18 
L 285.813644 202.98 
L 286.678247 202.98 
L 286.966448 140.18 
L 287.831051 140.18 
L 288.119252 202.98 
L 288.407453 140.18 
L 288.695654 202.98 
L 288.983855 140.18 
L 289.272056 202.98 
L 289.560257 140.18 
L 289.848458 202.98 
L 290.713061 202.98 
L 291.001262 140.18 
L 291.289463 202.98 
L 291.865865 202.98 
L 292.154066 140.18 
L 292.442267 202.98 
L 293.595071 202.98 
L 293.883272 140.18 
L 294.171473 202.98 
L 294.459674 140.18 
L 294.747875 202.98 
L 295.324277 202.98 
L 295.612478 140.18 
L 295.900679 202.98 
L 296.477081 202.98 
L 296.765282 140.18 
L 297.053483 202.98 
L 298.494488 202.98 
L 298.782689 140.18 
L 299.07089 140.18 
L 299.359091 202.98 
L 299.647292 202.98 
L 299.935493 140.18 
L 300.511895 140.18 
L 300.800096 202.98 
L 301.088297 202.98 
L 301.376498 140.18 
L 301.664699 202.98 
L 301.9529 202.98 
L 302.241101 140.18 
L 302.529302 202.98 
L 303.393905 202.98 
L 303.682106 140.18 
L 303.970307 140.18 
L 304.258508 202.98 
L 305.411312 202.98 
L 305.699513 140.18 
L 305.987714 202.98 
L 306.275915 202.98 
L 306.564116 140.18 
L 306.852318 202.98 
L 307.42872 202.98 
L 307.716921 140.18 
L 308.005122 202.98 
L 308.581524 202.98 
L 308.869725 140.18 
L 309.157926 140.18 
L 309.446127 202.98 
L 309.734328 202.98 
L 310.022529 140.18 
L 310.31073 202.98 
L 310.887132 202.98 
L 311.175333 140.18 
L 311.751735 140.18 
L 312.039936 202.98 
L 312.328137 140.18 
L 312.616338 202.98 
L 313.769142 202.98 
L 314.057343 140.18 
L 315.210147 140.18 
L 315.498348 202.98 
L 315.786549 140.18 
L 316.07475 140.18 
L 316.362951 202.98 
L 316.651152 140.18 
L 317.515755 140.18 
L 317.803956 202.98 
L 318.092157 140.18 
L 318.380358 202.98 
L 318.668559 202.98 
L 318.95676 140.18 
L 319.244961 140.18 
L 319.533162 202.98 
L 319.821363 202.98 
L 320.109564 140.18 
L 320.397765 140.18 
L 320.685966 202.98 
L 320.974167 140.18 
L 321.262368 140.18 
L 321.550569 202.98 
L 321.83877 202.98 
L 322.126971 140.18 
L 322.415172 140.18 
L 322.703373 202.98 
L 322.991574 140.18 
L 323.279775 140.18 
L 323.567976 202.98 
L 323.856177 140.18 
L 324.432579 140.18 
L 324.72078 202.98 
L 325.008981 140.18 
L 325.297182 140.18 
L 325.585383 202.98 
L 325.873584 202.98 
L 326.161785 140.18 
L 327.60279 140.18 
L 327.890991 202.98 
L 328.179192 202.98 
L 328.467393 140.18 
L 328.755594 202.98 
L 329.043795 140.18 
L 329.908398 140.18 
L 330.196599 202.98 
L 330.4848 140.18 
L 331.061202 140.18 
L 331.349403 202.98 
L 331.637604 140.18 
L 331.925805 202.98 
L 332.502207 202.98 
L 332.790408 140.18 
L 333.655011 140.18 
L 333.943212 202.98 
L 334.231413 140.18 
L 334.519614 202.98 
L 334.807815 202.98 
L 335.096016 140.18 
L 336.537021 140.18 
L 336.825222 202.98 
L 337.113423 202.98 
L 337.401624 140.18 
L 337.689826 140.18 
L 337.978027 202.98 
L 338.266228 140.18 
L 338.554429 202.98 
L 338.84263 140.18 
L 339.130831 202.98 
L 339.707233 202.98 
L 339.995434 140.18 
L 341.148238 140.18 
L 341.436439 202.98 
L 341.72464 140.18 
L 342.589243 140.18 
L 342.877444 202.98 
L 343.165645 140.18 
L 343.453846 202.98 
L 343.742047 202.98 
L 344.030248 140.18 
L 344.60665 140.18 
L 344.894851 202.98 
L 345.183052 202.98 
L 345.471253 140.18 
L 346.624057 140.18 
L 346.912258 202.98 
L 347.200459 140.18 
L 347.48866 202.98 
L 347.776861 202.98 
L 348.065062 140.18 
L 348.353263 140.18 
L 348.641464 202.98 
L 349.217866 202.98 
L 349.506067 140.18 
L 352.099876 140.18 
L 352.388077 202.98 
L 352.676278 140.18 
L 354.405484 140.18 
L 354.693685 202.98 
L 354.981886 202.98 
L 355.270087 140.18 
L 355.558288 140.18 
L 355.846489 202.98 
L 356.13469 140.18 
L 356.999293 140.18 
L 357.287494 202.98 
L 357.575695 140.18 
L 359.304901 140.18 
L 359.593102 202.98 
L 359.881303 140.18 
L 360.745906 140.18 
L 361.034107 202.98 
L 361.322308 140.18 
L 361.89871 140.18 
L 362.186911 202.98 
L 362.475112 140.18 
L 362.763313 202.98 
L 363.051514 140.18 
L 363.627916 140.18 
L 363.916117 202.98 
L 364.204318 140.18 
L 364.492519 140.18 
L 364.78072 202.98 
L 365.068921 140.18 
L 365.645323 140.18 
L 365.933524 202.98 
L 366.221725 140.18 
L 366.798127 140.18 
L 367.086328 202.98 
L 367.66273 202.98 
L 367.950931 140.18 
L 368.239132 202.98 
L 368.527333 140.18 
L 368.815535 202.98 
L 369.391937 202.98 
L 369.680138 140.18 
L 370.544741 140.18 
L 370.832942 202.98 
L 371.121143 140.18 
L 371.409344 140.18 
L 371.697545 202.98 
L 371.985746 140.18 
L 372.273947 202.98 
L 372.562148 140.18 
L 374.867756 140.18 
L 375.155957 202.98 
L 375.444158 140.18 
L 375.732359 202.98 
L 376.02056 140.18 
L 376.308761 202.98 
L 376.885163 202.98 
L 377.173364 140.18 
L 377.749766 140.18 
L 378.037967 202.98 
L 378.326168 140.18 
L 378.614369 202.98 
L 378.90257 140.18 
L 379.190771 202.98 
L 379.478972 140.18 
L 381.208178 140.18 
L 381.496379 202.98 
L 381.78458 202.98 
L 382.072781 140.18 
L 382.649183 140.18 
L 382.937384 202.98 
L 383.225585 202.98 
L 383.513786 140.18 
L 383.801987 140.18 
L 384.090188 202.98 
L 384.378389 140.18 
L 384.66659 202.98 
L 384.954791 140.18 
L 385.242992 140.18 
L 385.531193 202.98 
L 385.819394 140.18 
L 386.107595 202.98 
L 386.395796 202.98 
L 386.683997 140.18 
L 387.836801 140.18 
L 388.125002 202.98 
L 388.413203 140.18 
L 389.277806 140.18 
L 389.566007 202.98 
L 389.854208 140.18 
L 390.142409 202.98 
L 390.43061 140.18 
L 390.718811 202.98 
L 391.583414 202.98 
L 391.871615 140.18 
L 392.448017 140.18 
L 392.736218 202.98 
L 393.024419 140.18 
L 394.465424 140.18 
L 394.753625 202.98 
L 395.330027 202.98 
L 395.618228 140.18 
L 398.212037 140.18 
L 398.500238 202.98 
L 398.788439 140.18 
L 399.653043 140.18 
L 399.941244 202.98 
L 400.229445 140.18 
L 400.517646 202.98 
L 401.094048 202.98 
L 401.382249 140.18 
L 401.67045 202.98 
L 401.958651 140.18 
L 402.246852 202.98 
L 402.535053 140.18 
L 402.823254 202.98 
L 403.111455 140.18 
L 403.399656 202.98 
L 403.687857 140.18 
L 404.264259 140.18 
L 404.55246 202.98 
L 404.840661 140.18 
L 406.569867 140.18 
L 406.858068 202.98 
L 407.146269 140.18 
L 407.43447 202.98 
L 407.722671 140.18 
L 408.875475 140.18 
L 409.163676 202.98 
L 409.451877 202.98 
L 409.740078 140.18 
L 410.028279 202.98 
L 410.31648 140.18 
L 410.604681 140.18 
L 410.892882 202.98 
L 411.181083 140.18 
L 411.757485 140.18 
L 412.045686 202.98 
L 412.333887 140.18 
L 412.622088 202.98 
L 412.910289 140.18 
L 413.486691 140.18 
L 413.774892 202.98 
L 414.063093 140.18 
L 414.351294 140.18 
L 414.639495 202.98 
L 414.927696 140.18 
L 415.215897 202.98 
L 415.504098 140.18 
L 416.368701 140.18 
L 416.656902 202.98 
L 416.945103 140.18 
L 417.233304 140.18 
L 417.521505 202.98 
L 418.097907 202.98 
L 418.386108 140.18 
L 419.250711 140.18 
L 419.538912 202.98 
L 419.827113 140.18 
L 420.115314 140.18 
L 420.403515 202.98 
L 420.691716 140.18 
L 420.979917 202.98 
L 421.268118 140.18 
L 421.84452 140.18 
L 422.132721 202.98 
L 422.420922 140.18 
L 422.997324 140.18 
L 423.285525 202.98 
L 423.573726 140.18 
L 424.150128 140.18 
L 424.438329 202.98 
L 424.72653 140.18 
L 425.014731 202.98 
L 425.879334 202.98 
L 426.167535 140.18 
L 426.455736 202.98 
L 426.743937 202.98 
L 427.032138 140.18 
L 427.896741 140.18 
L 428.184942 202.98 
L 428.473143 140.18 
L 429.049545 140.18 
L 429.049545 140.18 
" style="fill:none;stroke:#1f77b4;stroke-linecap:square;stroke-width:0.4;"/>
   </g>
   <g id="patch_8">
    <path d="M 42.01 206.12 
L 42.01 137.04 
" style="fill:none;stroke:#000000;stroke-linecap:square;stroke-linejoin:miter;stroke-width:0.8;"/>
   </g>
   <g id="patch_9">
    <path d="M 447.48 206.12 
L 447.48 137.04 
" style="fill:none;stroke:#000000;stroke-linecap:square;stroke-linejoin:miter;stroke-width:0.8;"/>
   </g>
   <g id="patch_10">
    <path d="M 42.01 206.12 
L 447.48 206.12 
" style="fill:none;stroke:#000000;stroke-linecap:square;stroke-linejoin:miter;stroke-width:0.8;"/>
   </g>
   <g id="patch_11">
    <path d="M 42.01 137.04 
L 447.48 137.04 
" style="fill:none;stroke:#000000;stroke-linecap:square;stroke-linejoin:miter;stroke-width:0.8;"/>
   </g>
   <g id="text_18">
    <!-- 64x upsampled, PDM encoded -->
    <defs>
     <path d="M 54.890625 54.6875 
L 35.109375 28.078125 
L 55.90625 0 
L 45.3125 0 
L 29.390625 21.484375 
L 13.484375 0 
L 2.875 0 
L 24.125 28.609375 
L 4.6875 54.6875 
L 15.28125 54.6875 
L 29.78125 35.203125 
L 44.28125 54.6875 
z
" id="DejaVuSans-120"/>
     <path d="M 8.5 21.578125 
L 8.5 54.6875 
L 17.484375 54.6875 
L 17.484375 21.921875 
Q 17.484375 14.15625 20.5 10.265625 
Q 23.53125 6.390625 29.59375 6.390625 
Q 36.859375 6.390625 41.078125 11.03125 
Q 45.3125 15.671875 45.3125 23.6875 
L 45.3125 54.6875 
L 54.296875 54.6875 
L 54.296875 0 
L 45.3125 0 
L 45.3125 8.40625 
Q 42.046875 3.421875 37.71875 1 
Q 33.40625 -1.421875 27.6875 -1.421875 
Q 18.265625 -1.421875 13.375 4.4375 
Q 8.5 10.296875 8.5 21.578125 
z
M 31.109375 56 
z
" id="DejaVuSans-117"/>
     <path d="M 18.109375 8.203125 
L 18.109375 -20.796875 
L 9.078125 -20.796875 
L 9.078125 54.6875 
L 18.109375 54.6875 
L 18.109375 46.390625 
Q 20.953125 51.265625 25.265625 53.625 
Q 29.59375 56 35.59375 56 
Q 45.5625 56 51.78125 48.09375 
Q 58.015625 40.1875 58.015625 27.296875 
Q 58.015625 14.40625 51.78125 6.484375 
Q 45.5625 -1.421875 35.59375 -1.421875 
Q 29.59375 -1.421875 25.265625 0.953125 
Q 20.953125 3.328125 18.109375 8.203125 
z
M 48.6875 27.296875 
Q 48.6875 37.203125 44.609375 42.84375 
Q 40.53125 48.484375 33.40625 48.484375 
Q 26.265625 48.484375 22.1875 42.84375 
Q 18.109375 37.203125 18.109375 27.296875 
Q 18.109375 17.390625 22.1875 11.75 
Q 26.265625 6.109375 33.40625 6.109375 
Q 40.53125 6.109375 44.609375 11.75 
Q 48.6875 17.390625 48.6875 27.296875 
z
" id="DejaVuSans-112"/>
     <path d="M 52 44.1875 
Q 55.375 50.25 60.0625 53.125 
Q 64.75 56 71.09375 56 
Q 79.640625 56 84.28125 50.015625 
Q 88.921875 44.046875 88.921875 33.015625 
L 88.921875 0 
L 79.890625 0 
L 79.890625 32.71875 
Q 79.890625 40.578125 77.09375 44.375 
Q 74.3125 48.1875 68.609375 48.1875 
Q 61.625 48.1875 57.5625 43.546875 
Q 53.515625 38.921875 53.515625 30.90625 
L 53.515625 0 
L 44.484375 0 
L 44.484375 32.71875 
Q 44.484375 40.625 41.703125 44.40625 
Q 38.921875 48.1875 33.109375 48.1875 
Q 26.21875 48.1875 22.15625 43.53125 
Q 18.109375 38.875 18.109375 30.90625 
L 18.109375 0 
L 9.078125 0 
L 9.078125 54.6875 
L 18.109375 54.6875 
L 18.109375 46.1875 
Q 21.1875 51.21875 25.484375 53.609375 
Q 29.78125 56 35.6875 56 
Q 41.65625 56 45.828125 52.96875 
Q 50 49.953125 52 44.1875 
z
" id="DejaVuSans-109"/>
     <path d="M 56.203125 29.59375 
L 56.203125 25.203125 
L 14.890625 25.203125 
Q 15.484375 15.921875 20.484375 11.0625 
Q 25.484375 6.203125 34.421875 6.203125 
Q 39.59375 6.203125 44.453125 7.46875 
Q 49.3125 8.734375 54.109375 11.28125 
L 54.109375 2.78125 
Q 49.265625 0.734375 44.1875 -0.34375 
Q 39.109375 -1.421875 33.890625 -1.421875 
Q 20.796875 -1.421875 13.15625 6.1875 
Q 5.515625 13.8125 5.515625 26.8125 
Q 5.515625 40.234375 12.765625 48.109375 
Q 20.015625 56 32.328125 56 
Q 43.359375 56 49.78125 48.890625 
Q 56.203125 41.796875 56.203125 29.59375 
z
M 47.21875 32.234375 
Q 47.125 39.59375 43.09375 43.984375 
Q 39.0625 48.390625 32.421875 48.390625 
Q 24.90625 48.390625 20.390625 44.140625 
Q 15.875 39.890625 15.1875 32.171875 
z
" id="DejaVuSans-101"/>
     <path d="M 45.40625 46.390625 
L 45.40625 75.984375 
L 54.390625 75.984375 
L 54.390625 0 
L 45.40625 0 
L 45.40625 8.203125 
Q 42.578125 3.328125 38.25 0.953125 
Q 33.9375 -1.421875 27.875 -1.421875 
Q 17.96875 -1.421875 11.734375 6.484375 
Q 5.515625 14.40625 5.515625 27.296875 
Q 5.515625 40.1875 11.734375 48.09375 
Q 17.96875 56 27.875 56 
Q 33.9375 56 38.25 53.625 
Q 42.578125 51.265625 45.40625 46.390625 
z
M 14.796875 27.296875 
Q 14.796875 17.390625 18.875 11.75 
Q 22.953125 6.109375 30.078125 6.109375 
Q 37.203125 6.109375 41.296875 11.75 
Q 45.40625 17.390625 45.40625 27.296875 
Q 45.40625 37.203125 41.296875 42.84375 
Q 37.203125 48.484375 30.078125 48.484375 
Q 22.953125 48.484375 18.875 42.84375 
Q 14.796875 37.203125 14.796875 27.296875 
z
" id="DejaVuSans-100"/>
     <path d="M 11.71875 12.40625 
L 22.015625 12.40625 
L 22.015625 4 
L 14.015625 -11.625 
L 7.71875 -11.625 
L 11.71875 4 
z
" id="DejaVuSans-44"/>
     <path d="M 19.671875 64.796875 
L 19.671875 37.40625 
L 32.078125 37.40625 
Q 38.96875 37.40625 42.71875 40.96875 
Q 46.484375 44.53125 46.484375 51.125 
Q 46.484375 57.671875 42.71875 61.234375 
Q 38.96875 64.796875 32.078125 64.796875 
z
M 9.8125 72.90625 
L 32.078125 72.90625 
Q 44.34375 72.90625 50.609375 67.359375 
Q 56.890625 61.8125 56.890625 51.125 
Q 56.890625 40.328125 50.609375 34.8125 
Q 44.34375 29.296875 32.078125 29.296875 
L 19.671875 29.296875 
L 19.671875 0 
L 9.8125 0 
z
" id="DejaVuSans-80"/>
     <path d="M 19.671875 64.796875 
L 19.671875 8.109375 
L 31.59375 8.109375 
Q 46.6875 8.109375 53.6875 14.9375 
Q 60.6875 21.78125 60.6875 36.53125 
Q 60.6875 51.171875 53.6875 57.984375 
Q 46.6875 64.796875 31.59375 64.796875 
z
M 9.8125 72.90625 
L 30.078125 72.90625 
Q 51.265625 72.90625 61.171875 64.09375 
Q 71.09375 55.28125 71.09375 36.53125 
Q 71.09375 17.671875 61.125 8.828125 
Q 51.171875 0 30.078125 0 
L 9.8125 0 
z
" id="DejaVuSans-68"/>
     <path d="M 9.8125 72.90625 
L 24.515625 72.90625 
L 43.109375 23.296875 
L 61.8125 72.90625 
L 76.515625 72.90625 
L 76.515625 0 
L 66.890625 0 
L 66.890625 64.015625 
L 48.09375 14.015625 
L 38.1875 14.015625 
L 19.390625 64.015625 
L 19.390625 0 
L 9.8125 0 
z
" id="DejaVuSans-77"/>
     <path d="M 48.78125 52.59375 
L 48.78125 44.1875 
Q 44.96875 46.296875 41.140625 47.34375 
Q 37.3125 48.390625 33.40625 48.390625 
Q 24.65625 48.390625 19.8125 42.84375 
Q 14.984375 37.3125 14.984375 27.296875 
Q 14.984375 17.28125 19.8125 11.734375 
Q 24.65625 6.203125 33.40625 6.203125 
Q 37.3125 6.203125 41.140625 7.25 
Q 44.96875 8.296875 48.78125 10.40625 
L 48.78125 2.09375 
Q 45.015625 0.34375 40.984375 -0.53125 
Q 36.96875 -1.421875 32.421875 -1.421875 
Q 20.0625 -1.421875 12.78125 6.34375 
Q 5.515625 14.109375 5.515625 27.296875 
Q 5.515625 40.671875 12.859375 48.328125 
Q 20.21875 56 33.015625 56 
Q 37.15625 56 41.109375 55.140625 
Q 45.0625 54.296875 48.78125 52.59375 
z
" id="DejaVuSans-99"/>
     <path d="M 30.609375 48.390625 
Q 23.390625 48.390625 19.1875 42.75 
Q 14.984375 37.109375 14.984375 27.296875 
Q 14.984375 17.484375 19.15625 11.84375 
Q 23.34375 6.203125 30.609375 6.203125 
Q 37.796875 6.203125 41.984375 11.859375 
Q 46.1875 17.53125 46.1875 27.296875 
Q 46.1875 37.015625 41.984375 42.703125 
Q 37.796875 48.390625 30.609375 48.390625 
z
M 30.609375 56 
Q 42.328125 56 49.015625 48.375 
Q 55.71875 40.765625 55.71875 27.296875 
Q 55.71875 13.875 49.015625 6.21875 
Q 42.328125 -1.421875 30.609375 -1.421875 
Q 18.84375 -1.421875 12.171875 6.21875 
Q 5.515625 13.875 5.515625 27.296875 
Q 5.515625 40.765625 12.171875 48.375 
Q 18.84375 56 30.609375 56 
z
" id="DejaVuSans-111"/>
    </defs>
    <g transform="translate(153.506563 131.04)scale(0.12 -0.12)">
     <use xlink:href="#DejaVuSans-54"/>
     <use x="63.623047" xlink:href="#DejaVuSans-52"/>
     <use x="127.246094" xlink:href="#DejaVuSans-120"/>
     <use x="186.425781" xlink:href="#DejaVuSans-32"/>
     <use x="218.212891" xlink:href="#DejaVuSans-117"/>
     <use x="281.591797" xlink:href="#DejaVuSans-112"/>
     <use x="345.068359" xlink:href="#DejaVuSans-115"/>
     <use x="397.167969" xlink:href="#DejaVuSans-97"/>
     <use x="458.447266" xlink:href="#DejaVuSans-109"/>
     <use x="555.859375" xlink:href="#DejaVuSans-112"/>
     <use x="619.335938" xlink:href="#DejaVuSans-108"/>
     <use x="647.119141" xlink:href="#DejaVuSans-101"/>
     <use x="708.642578" xlink:href="#DejaVuSans-100"/>
     <use x="772.119141" xlink:href="#DejaVuSans-44"/>
     <use x="803.90625" xlink:href="#DejaVuSans-32"/>
     <use x="835.693359" xlink:href="#DejaVuSans-80"/>
     <use x="895.996094" xlink:href="#DejaVuSans-68"/>
     <use x="972.998047" xlink:href="#DejaVuSans-77"/>
     <use x="1059.277344" xlink:href="#DejaVuSans-32"/>
     <use x="1091.064453" xlink:href="#DejaVuSans-101"/>
     <use x="1152.587891" xlink:href="#DejaVuSans-110"/>
     <use x="1215.966797" xlink:href="#DejaVuSans-99"/>
     <use x="1270.947266" xlink:href="#DejaVuSans-111"/>
     <use x="1332.128906" xlink:href="#DejaVuSans-100"/>
     <use x="1395.605469" xlink:href="#DejaVuSans-101"/>
     <use x="1457.128906" xlink:href="#DejaVuSans-100"/>
    </g>
   </g>
  </g>
  <g id="axes_3">
   <g id="patch_12">
    <path d="M 42.01 317.72 
L 447.48 317.72 
L 447.48 248.64 
L 42.01 248.64 
z
" style="fill:#ffffff;"/>
   </g>
   <g id="matplotlib.axis_5">
    <g id="xtick_12">
     <g id="line2d_19">
      <g>
       <use style="stroke:#000000;stroke-width:0.8;" x="90.172936" xlink:href="#me8b4bbb1a9" y="317.72"/>
      </g>
     </g>
     <g id="text_19">
      <!-- 0.2620 -->
      <g transform="translate(72.677623 332.318437)scale(0.1 -0.1)">
       <use xlink:href="#DejaVuSans-48"/>
       <use x="63.623047" xlink:href="#DejaVuSans-46"/>
       <use x="95.410156" xlink:href="#DejaVuSans-50"/>
       <use x="159.033203" xlink:href="#DejaVuSans-54"/>
       <use x="222.65625" xlink:href="#DejaVuSans-50"/>
       <use x="286.279297" xlink:href="#DejaVuSans-48"/>
      </g>
     </g>
    </g>
    <g id="xtick_13">
     <g id="line2d_20">
      <g>
       <use style="stroke:#000000;stroke-width:0.8;" x="164.277305" xlink:href="#me8b4bbb1a9" y="317.72"/>
      </g>
     </g>
     <g id="text_20">
      <!-- 0.2625 -->
      <g transform="translate(146.781992 332.318437)scale(0.1 -0.1)">
       <use xlink:href="#DejaVuSans-48"/>
       <use x="63.623047" xlink:href="#DejaVuSans-46"/>
       <use x="95.410156" xlink:href="#DejaVuSans-50"/>
       <use x="159.033203" xlink:href="#DejaVuSans-54"/>
       <use x="222.65625" xlink:href="#DejaVuSans-50"/>
       <use x="286.279297" xlink:href="#DejaVuSans-53"/>
      </g>
     </g>
    </g>
    <g id="xtick_14">
     <g id="line2d_21">
      <g>
       <use style="stroke:#000000;stroke-width:0.8;" x="238.381674" xlink:href="#me8b4bbb1a9" y="317.72"/>
      </g>
     </g>
     <g id="text_21">
      <!-- 0.2630 -->
      <g transform="translate(220.886361 332.318437)scale(0.1 -0.1)">
       <use xlink:href="#DejaVuSans-48"/>
       <use x="63.623047" xlink:href="#DejaVuSans-46"/>
       <use x="95.410156" xlink:href="#DejaVuSans-50"/>
       <use x="159.033203" xlink:href="#DejaVuSans-54"/>
       <use x="222.65625" xlink:href="#DejaVuSans-51"/>
       <use x="286.279297" xlink:href="#DejaVuSans-48"/>
      </g>
     </g>
    </g>
    <g id="xtick_15">
     <g id="line2d_22">
      <g>
       <use style="stroke:#000000;stroke-width:0.8;" x="312.486043" xlink:href="#me8b4bbb1a9" y="317.72"/>
      </g>
     </g>
     <g id="text_22">
      <!-- 0.2635 -->
      <g transform="translate(294.990731 332.318437)scale(0.1 -0.1)">
       <use xlink:href="#DejaVuSans-48"/>
       <use x="63.623047" xlink:href="#DejaVuSans-46"/>
       <use x="95.410156" xlink:href="#DejaVuSans-50"/>
       <use x="159.033203" xlink:href="#DejaVuSans-54"/>
       <use x="222.65625" xlink:href="#DejaVuSans-51"/>
       <use x="286.279297" xlink:href="#DejaVuSans-53"/>
      </g>
     </g>
    </g>
    <g id="xtick_16">
     <g id="line2d_23">
      <g>
       <use style="stroke:#000000;stroke-width:0.8;" x="386.590412" xlink:href="#me8b4bbb1a9" y="317.72"/>
      </g>
     </g>
     <g id="text_23">
      <!-- 0.2640 -->
      <g transform="translate(369.0951 332.318437)scale(0.1 -0.1)">
       <use xlink:href="#DejaVuSans-48"/>
       <use x="63.623047" xlink:href="#DejaVuSans-46"/>
       <use x="95.410156" xlink:href="#DejaVuSans-50"/>
       <use x="159.033203" xlink:href="#DejaVuSans-54"/>
       <use x="222.65625" xlink:href="#DejaVuSans-52"/>
       <use x="286.279297" xlink:href="#DejaVuSans-48"/>
      </g>
     </g>
    </g>
   </g>
   <g id="matplotlib.axis_6">
    <g id="ytick_6">
     <g id="line2d_24">
      <g>
       <use style="stroke:#000000;stroke-width:0.8;" x="42.01" xlink:href="#m52a1998e00" y="301.982645"/>
      </g>
     </g>
     <g id="text_24">
      <!-- −0.5 -->
      <g transform="translate(10.727187 305.781863)scale(0.1 -0.1)">
       <use xlink:href="#DejaVuSans-8722"/>
       <use x="83.789062" xlink:href="#DejaVuSans-48"/>
       <use x="147.412109" xlink:href="#DejaVuSans-46"/>
       <use x="179.199219" xlink:href="#DejaVuSans-53"/>
      </g>
     </g>
    </g>
    <g id="ytick_7">
     <g id="line2d_25">
      <g>
       <use style="stroke:#000000;stroke-width:0.8;" x="42.01" xlink:href="#m52a1998e00" y="275.502565"/>
      </g>
     </g>
     <g id="text_25">
      <!-- 0.0 -->
      <g transform="translate(19.106875 279.301783)scale(0.1 -0.1)">
       <use xlink:href="#DejaVuSans-48"/>
       <use x="63.623047" xlink:href="#DejaVuSans-46"/>
       <use x="95.410156" xlink:href="#DejaVuSans-48"/>
      </g>
     </g>
    </g>
    <g id="ytick_8">
     <g id="line2d_26">
      <g>
       <use style="stroke:#000000;stroke-width:0.8;" x="42.01" xlink:href="#m52a1998e00" y="249.022485"/>
      </g>
     </g>
     <g id="text_26">
      <!-- 0.5 -->
      <g transform="translate(19.106875 252.821704)scale(0.1 -0.1)">
       <use xlink:href="#DejaVuSans-48"/>
       <use x="63.623047" xlink:href="#DejaVuSans-46"/>
       <use x="95.410156" xlink:href="#DejaVuSans-53"/>
      </g>
     </g>
    </g>
   </g>
   <g id="line2d_27">
    <path clip-path="url(#p55e4a5e262)" d="M 60.440455 311.753716 
L 79.840933 294.012868 
L 99.241411 269.539291 
L 118.64189 258.06822 
L 138.042368 252.746836 
L 157.442847 256.29545 
L 176.843325 252.644706 
L 196.243804 256.453019 
L 215.644282 253.610224 
L 235.044761 269.631782 
L 254.445239 297.729065 
L 273.845718 314.58 
L 293.246196 306.288842 
L 312.646675 293.126591 
L 332.047153 268.561257 
L 351.447632 258.382818 
L 370.84811 251.78 
L 390.248589 259.15701 
L 409.649067 258.559974 
L 429.049545 256.679288 
" style="fill:none;stroke:#1f77b4;stroke-linecap:square;stroke-width:1.5;"/>
   </g>
   <g id="patch_13">
    <path d="M 42.01 317.72 
L 42.01 248.64 
" style="fill:none;stroke:#000000;stroke-linecap:square;stroke-linejoin:miter;stroke-width:0.8;"/>
   </g>
   <g id="patch_14">
    <path d="M 447.48 317.72 
L 447.48 248.64 
" style="fill:none;stroke:#000000;stroke-linecap:square;stroke-linejoin:miter;stroke-width:0.8;"/>
   </g>
   <g id="patch_15">
    <path d="M 42.01 317.72 
L 447.48 317.72 
" style="fill:none;stroke:#000000;stroke-linecap:square;stroke-linejoin:miter;stroke-width:0.8;"/>
   </g>
   <g id="patch_16">
    <path d="M 42.01 248.64 
L 447.48 248.64 
" style="fill:none;stroke:#000000;stroke-linecap:square;stroke-linejoin:miter;stroke-width:0.8;"/>
   </g>
   <g id="text_27">
    <!-- Decoded signal -->
    <g transform="translate(198.498125 242.64)scale(0.12 -0.12)">
     <use xlink:href="#DejaVuSans-68"/>
     <use x="77.001953" xlink:href="#DejaVuSans-101"/>
     <use x="138.525391" xlink:href="#DejaVuSans-99"/>
     <use x="193.505859" xlink:href="#DejaVuSans-111"/>
     <use x="254.6875" xlink:href="#DejaVuSans-100"/>
     <use x="318.164062" xlink:href="#DejaVuSans-101"/>
     <use x="379.6875" xlink:href="#DejaVuSans-100"/>
     <use x="443.164062" xlink:href="#DejaVuSans-32"/>
     <use x="474.951172" xlink:href="#DejaVuSans-115"/>
     <use x="527.050781" xlink:href="#DejaVuSans-105"/>
     <use x="554.833984" xlink:href="#DejaVuSans-103"/>
     <use x="618.310547" xlink:href="#DejaVuSans-110"/>
     <use x="681.689453" xlink:href="#DejaVuSans-97"/>
     <use x="742.96875" xlink:href="#DejaVuSans-108"/>
    </g>
   </g>
  </g>
 </g>
 <defs>
  <clipPath id="p88477b9eca">
   <rect height="69.08" width="405.47" x="42.01" y="25.44"/>
  </clipPath>
  <clipPath id="pf11db360e7">
   <rect height="69.08" width="405.47" x="42.01" y="137.04"/>
  </clipPath>
  <clipPath id="p55e4a5e262">
   <rect height="69.08" width="405.47" x="42.01" y="248.64"/>
  </clipPath>
 </defs>
</svg>
