<?xml version="1.0" encoding="utf-8" standalone="no"?>
<!DOCTYPE svg PUBLIC "-//W3C//DTD SVG 1.1//EN"
  "http://www.w3.org/Graphics/SVG/1.1/DTD/svg11.dtd">
<!-- Created with matplotlib (https://matplotlib.org/) -->
<svg height="345.6pt" version="1.1" viewBox="0 0 460.8 345.6" width="460.8pt" xmlns="http://www.w3.org/2000/svg" xmlns:xlink="http://www.w3.org/1999/xlink">
 <defs>
  <style type="text/css">
*{stroke-linecap:butt;stroke-linejoin:round;}
  </style>
 </defs>
 <g id="figure_1">
  <g id="patch_1">
   <path d="M 0 345.6 
L 460.8 345.6 
L 460.8 0 
L 0 0 
z
" style="fill:#ffffff;"/>
  </g>
  <g id="axes_1">
   <g id="patch_2">
    <path d="M 42.01 94.52 
L 447.48 94.52 
L 447.48 25.44 
L 42.01 25.44 
z
" style="fill:#ffffff;"/>
   </g>
   <g id="matplotlib.axis_1">
    <g id="xtick_1">
     <g id="line2d_1">
      <defs>
       <path d="M 0 0 
L 0 3.5 
" id="m137d969a53" style="stroke:#000000;stroke-width:0.8;"/>
      </defs>
      <g>
       <use style="stroke:#000000;stroke-width:0.8;" x="90.172936" xlink:href="#m137d969a53" y="94.52"/>
      </g>
     </g>
     <g id="text_1">
      <!-- 0.2620 -->
      <defs>
       <path d="M 31.78125 66.40625 
Q 24.171875 66.40625 20.328125 58.90625 
Q 16.5 51.421875 16.5 36.375 
Q 16.5 21.390625 20.328125 13.890625 
Q 24.171875 6.390625 31.78125 6.390625 
Q 39.453125 6.390625 43.28125 13.890625 
Q 47.125 21.390625 47.125 36.375 
Q 47.125 51.421875 43.28125 58.90625 
Q 39.453125 66.40625 31.78125 66.40625 
z
M 31.78125 74.21875 
Q 44.046875 74.21875 50.515625 64.515625 
Q 56.984375 54.828125 56.984375 36.375 
Q 56.984375 17.96875 50.515625 8.265625 
Q 44.046875 -1.421875 31.78125 -1.421875 
Q 19.53125 -1.421875 13.0625 8.265625 
Q 6.59375 17.96875 6.59375 36.375 
Q 6.59375 54.828125 13.0625 64.515625 
Q 19.53125 74.21875 31.78125 74.21875 
z
" id="DejaVuSans-48"/>
       <path d="M 10.6875 12.40625 
L 21 12.40625 
L 21 0 
L 10.6875 0 
z
" id="DejaVuSans-46"/>
       <path d="M 19.1875 8.296875 
L 53.609375 8.296875 
L 53.609375 0 
L 7.328125 0 
L 7.328125 8.296875 
Q 12.9375 14.109375 22.625 23.890625 
Q 32.328125 33.6875 34.8125 36.53125 
Q 39.546875 41.84375 41.421875 45.53125 
Q 43.3125 49.21875 43.3125 52.78125 
Q 43.3125 58.59375 39.234375 62.25 
Q 35.15625 65.921875 28.609375 65.921875 
Q 23.96875 65.921875 18.8125 64.3125 
Q 13.671875 62.703125 7.8125 59.421875 
L 7.8125 69.390625 
Q 13.765625 71.78125 18.9375 73 
Q 24.125 74.21875 28.421875 74.21875 
Q 39.75 74.21875 46.484375 68.546875 
Q 53.21875 62.890625 53.21875 53.421875 
Q 53.21875 48.921875 51.53125 44.890625 
Q 49.859375 40.875 45.40625 35.40625 
Q 44.1875 33.984375 37.640625 27.21875 
Q 31.109375 20.453125 19.1875 8.296875 
z
" id="DejaVuSans-50"/>
       <path d="M 33.015625 40.375 
Q 26.375 40.375 22.484375 35.828125 
Q 18.609375 31.296875 18.609375 23.390625 
Q 18.609375 15.53125 22.484375 10.953125 
Q 26.375 6.390625 33.015625 6.390625 
Q 39.65625 6.390625 43.53125 10.953125 
Q 47.40625 15.53125 47.40625 23.390625 
Q 47.40625 31.296875 43.53125 35.828125 
Q 39.65625 40.375 33.015625 40.375 
z
M 52.59375 71.296875 
L 52.59375 62.3125 
Q 48.875 64.0625 45.09375 64.984375 
Q 41.3125 65.921875 37.59375 65.921875 
Q 27.828125 65.921875 22.671875 59.328125 
Q 17.53125 52.734375 16.796875 39.40625 
Q 19.671875 43.65625 24.015625 45.921875 
Q 28.375 48.1875 33.59375 48.1875 
Q 44.578125 48.1875 50.953125 41.515625 
Q 57.328125 34.859375 57.328125 23.390625 
Q 57.328125 12.15625 50.6875 5.359375 
Q 44.046875 -1.421875 33.015625 -1.421875 
Q 20.359375 -1.421875 13.671875 8.265625 
Q 6.984375 17.96875 6.984375 36.375 
Q 6.984375 53.65625 15.1875 63.9375 
Q 23.390625 74.21875 37.203125 74.21875 
Q 40.921875 74.21875 44.703125 73.484375 
Q 48.484375 72.75 52.59375 71.296875 
z
" id="DejaVuSans-54"/>
      </defs>
      <g transform="translate(72.677623 109.118437)scale(0.1 -0.1)">
       <use xlink:href="#DejaVuSans-48"/>
       <use x="63.623047" xlink:href="#DejaVuSans-46"/>
       <use x="95.410156" xlink:href="#DejaVuSans-50"/>
       <use x="159.033203" xlink:href="#DejaVuSans-54"/>
       <use x="222.65625" xlink:href="#DejaVuSans-50"/>
       <use x="286.279297" xlink:href="#DejaVuSans-48"/>
      </g>
     </g>
    </g>
    <g id="xtick_2">
     <g id="line2d_2">
      <g>
       <use style="stroke:#000000;stroke-width:0.8;" x="164.277305" xlink:href="#m137d969a53" y="94.52"/>
      </g>
     </g>
     <g id="text_2">
      <!-- 0.2625 -->
      <defs>
       <path d="M 10.796875 72.90625 
L 49.515625 72.90625 
L 49.515625 64.59375 
L 19.828125 64.59375 
L 19.828125 46.734375 
Q 21.96875 47.46875 24.109375 47.828125 
Q 26.265625 48.1875 28.421875 48.1875 
Q 40.625 48.1875 47.75 41.5 
Q 54.890625 34.8125 54.890625 23.390625 
Q 54.890625 11.625 47.5625 5.09375 
Q 40.234375 -1.421875 26.90625 -1.421875 
Q 22.3125 -1.421875 17.546875 -0.640625 
Q 12.796875 0.140625 7.71875 1.703125 
L 7.71875 11.625 
Q 12.109375 9.234375 16.796875 8.0625 
Q 21.484375 6.890625 26.703125 6.890625 
Q 35.15625 6.890625 40.078125 11.328125 
Q 45.015625 15.765625 45.015625 23.390625 
Q 45.015625 31 40.078125 35.4375 
Q 35.15625 39.890625 26.703125 39.890625 
Q 22.75 39.890625 18.8125 39.015625 
Q 14.890625 38.140625 10.796875 36.28125 
z
" id="DejaVuSans-53"/>
      </defs>
      <g transform="translate(146.781992 109.118437)scale(0.1 -0.1)">
       <use xlink:href="#DejaVuSans-48"/>
       <use x="63.623047" xlink:href="#DejaVuSans-46"/>
       <use x="95.410156" xlink:href="#DejaVuSans-50"/>
       <use x="159.033203" xlink:href="#DejaVuSans-54"/>
       <use x="222.65625" xlink:href="#DejaVuSans-50"/>
       <use x="286.279297" xlink:href="#DejaVuSans-53"/>
      </g>
     </g>
    </g>
    <g id="xtick_3">
     <g id="line2d_3">
      <g>
       <use style="stroke:#000000;stroke-width:0.8;" x="238.381674" xlink:href="#m137d969a53" y="94.52"/>
      </g>
     </g>
     <g id="text_3">
      <!-- 0.2630 -->
      <defs>
       <path d="M 40.578125 39.3125 
Q 47.65625 37.796875 51.625 33 
Q 55.609375 28.21875 55.609375 21.1875 
Q 55.609375 10.40625 48.1875 4.484375 
Q 40.765625 -1.421875 27.09375 -1.421875 
Q 22.515625 -1.421875 17.65625 -0.515625 
Q 12.796875 0.390625 7.625 2.203125 
L 7.625 11.71875 
Q 11.71875 9.328125 16.59375 8.109375 
Q 21.484375 6.890625 26.8125 6.890625 
Q 36.078125 6.890625 40.9375 10.546875 
Q 45.796875 14.203125 45.796875 21.1875 
Q 45.796875 27.640625 41.28125 31.265625 
Q 36.765625 34.90625 28.71875 34.90625 
L 20.21875 34.90625 
L 20.21875 43.015625 
L 29.109375 43.015625 
Q 36.375 43.015625 40.234375 45.921875 
Q 44.09375 48.828125 44.09375 54.296875 
Q 44.09375 59.90625 40.109375 62.90625 
Q 36.140625 65.921875 28.71875 65.921875 
Q 24.65625 65.921875 20.015625 65.03125 
Q 15.375 64.15625 9.8125 62.3125 
L 9.8125 71.09375 
Q 15.4375 72.65625 20.34375 73.4375 
Q 25.25 74.21875 29.59375 74.21875 
Q 40.828125 74.21875 47.359375 69.109375 
Q 53.90625 64.015625 53.90625 55.328125 
Q 53.90625 49.265625 50.4375 45.09375 
Q 46.96875 40.921875 40.578125 39.3125 
z
" id="DejaVuSans-51"/>
      </defs>
      <g transform="translate(220.886361 109.118437)scale(0.1 -0.1)">
       <use xlink:href="#DejaVuSans-48"/>
       <use x="63.623047" xlink:href="#DejaVuSans-46"/>
       <use x="95.410156" xlink:href="#DejaVuSans-50"/>
       <use x="159.033203" xlink:href="#DejaVuSans-54"/>
       <use x="222.65625" xlink:href="#DejaVuSans-51"/>
       <use x="286.279297" xlink:href="#DejaVuSans-48"/>
      </g>
     </g>
    </g>
    <g id="xtick_4">
     <g id="line2d_4">
      <g>
       <use style="stroke:#000000;stroke-width:0.8;" x="312.486043" xlink:href="#m137d969a53" y="94.52"/>
      </g>
     </g>
     <g id="text_4">
      <!-- 0.2635 -->
      <g transform="translate(294.990731 109.118437)scale(0.1 -0.1)">
       <use xlink:href="#DejaVuSans-48"/>
       <use x="63.623047" xlink:href="#DejaVuSans-46"/>
       <use x="95.410156" xlink:href="#DejaVuSans-50"/>
       <use x="159.033203" xlink:href="#DejaVuSans-54"/>
       <use x="222.65625" xlink:href="#DejaVuSans-51"/>
       <use x="286.279297" xlink:href="#DejaVuSans-53"/>
      </g>
     </g>
    </g>
    <g id="xtick_5">
     <g id="line2d_5">
      <g>
       <use style="stroke:#000000;stroke-width:0.8;" x="386.590412" xlink:href="#m137d969a53" y="94.52"/>
      </g>
     </g>
     <g id="text_5">
      <!-- 0.2640 -->
      <defs>
       <path d="M 37.796875 64.3125 
L 12.890625 25.390625 
L 37.796875 25.390625 
z
M 35.203125 72.90625 
L 47.609375 72.90625 
L 47.609375 25.390625 
L 58.015625 25.390625 
L 58.015625 17.1875 
L 47.609375 17.1875 
L 47.609375 0 
L 37.796875 0 
L 37.796875 17.1875 
L 4.890625 17.1875 
L 4.890625 26.703125 
z
" id="DejaVuSans-52"/>
      </defs>
      <g transform="translate(369.0951 109.118437)scale(0.1 -0.1)">
       <use xlink:href="#DejaVuSans-48"/>
       <use x="63.623047" xlink:href="#DejaVuSans-46"/>
       <use x="95.410156" xlink:href="#DejaVuSans-50"/>
       <use x="159.033203" xlink:href="#DejaVuSans-54"/>
       <use x="222.65625" xlink:href="#DejaVuSans-52"/>
       <use x="286.279297" xlink:href="#DejaVuSans-48"/>
      </g>
     </g>
    </g>
   </g>
   <g id="matplotlib.axis_2">
    <g id="ytick_1">
     <g id="line2d_6">
      <defs>
       <path d="M 0 0 
L -3.5 0 
" id="m3153bd20da" style="stroke:#000000;stroke-width:0.8;"/>
      </defs>
      <g>
       <use style="stroke:#000000;stroke-width:0.8;" x="42.01" xlink:href="#m3153bd20da" y="74.638577"/>
      </g>
     </g>
     <g id="text_6">
      <!-- −0.5 -->
      <defs>
       <path d="M 10.59375 35.5 
L 73.1875 35.5 
L 73.1875 27.203125 
L 10.59375 27.203125 
z
" id="DejaVuSans-8722"/>
      </defs>
      <g transform="translate(10.727187 78.437795)scale(0.1 -0.1)">
       <use xlink:href="#DejaVuSans-8722"/>
       <use x="83.789062" xlink:href="#DejaVuSans-48"/>
       <use x="147.412109" xlink:href="#DejaVuSans-46"/>
       <use x="179.199219" xlink:href="#DejaVuSans-53"/>
      </g>
     </g>
    </g>
    <g id="ytick_2">
     <g id="line2d_7">
      <g>
       <use style="stroke:#000000;stroke-width:0.8;" x="42.01" xlink:href="#m3153bd20da" y="52.42326"/>
      </g>
     </g>
     <g id="text_7">
      <!-- 0.0 -->
      <g transform="translate(19.106875 56.222479)scale(0.1 -0.1)">
       <use xlink:href="#DejaVuSans-48"/>
       <use x="63.623047" xlink:href="#DejaVuSans-46"/>
       <use x="95.410156" xlink:href="#DejaVuSans-48"/>
      </g>
     </g>
    </g>
    <g id="ytick_3">
     <g id="line2d_8">
      <g>
       <use style="stroke:#000000;stroke-width:0.8;" x="42.01" xlink:href="#m3153bd20da" y="30.207943"/>
      </g>
     </g>
     <g id="text_8">
      <!-- 0.5 -->
      <g transform="translate(19.106875 34.007162)scale(0.1 -0.1)">
       <use xlink:href="#DejaVuSans-48"/>
       <use x="63.623047" xlink:href="#DejaVuSans-46"/>
       <use x="95.410156" xlink:href="#DejaVuSans-53"/>
      </g>
     </g>
    </g>
   </g>
   <g id="line2d_9">
    <path clip-path="url(#pdd75e4afa2)" d="M 60.440455 88.748388 
L 79.840933 72.022936 
L 99.241411 51.669237 
L 118.64189 37.804263 
L 138.042368 32.480791 
L 157.442847 30.846618 
L 176.843325 28.777972 
L 196.243804 28.58 
L 215.644282 36.612274 
L 235.044761 55.237783 
L 254.445239 77.62429 
L 273.845718 91.38 
L 293.246196 88.250467 
L 312.646675 70.892805 
L 332.047153 50.341505 
L 351.447632 36.672004 
L 370.84811 31.756131 
L 390.248589 30.598697 
L 409.649067 29.042153 
L 429.049545 29.380307 
" style="fill:none;stroke:#1f77b4;stroke-linecap:square;stroke-width:1.5;"/>
   </g>
   <g id="patch_3">
    <path d="M 42.01 94.52 
L 42.01 25.44 
" style="fill:none;stroke:#000000;stroke-linecap:square;stroke-linejoin:miter;stroke-width:0.8;"/>
   </g>
   <g id="patch_4">
    <path d="M 447.48 94.52 
L 447.48 25.44 
" style="fill:none;stroke:#000000;stroke-linecap:square;stroke-linejoin:miter;stroke-width:0.8;"/>
   </g>
   <g id="patch_5">
    <path d="M 42.01 94.52 
L 447.48 94.52 
" style="fill:none;stroke:#000000;stroke-linecap:square;stroke-linejoin:miter;stroke-width:0.8;"/>
   </g>
   <g id="patch_6">
    <path d="M 42.01 25.44 
L 447.48 25.44 
" style="fill:none;stroke:#000000;stroke-linecap:square;stroke-linejoin:miter;stroke-width:0.8;"/>
   </g>
   <g id="text_9">
    <!-- Original signal -->
    <defs>
     <path d="M 39.40625 66.21875 
Q 28.65625 66.21875 22.328125 58.203125 
Q 16.015625 50.203125 16.015625 36.375 
Q 16.015625 22.609375 22.328125 14.59375 
Q 28.65625 6.59375 39.40625 6.59375 
Q 50.140625 6.59375 56.421875 14.59375 
Q 62.703125 22.609375 62.703125 36.375 
Q 62.703125 50.203125 56.421875 58.203125 
Q 50.140625 66.21875 39.40625 66.21875 
z
M 39.40625 74.21875 
Q 54.734375 74.21875 63.90625 63.9375 
Q 73.09375 53.65625 73.09375 36.375 
Q 73.09375 19.140625 63.90625 8.859375 
Q 54.734375 -1.421875 39.40625 -1.421875 
Q 24.03125 -1.421875 14.8125 8.828125 
Q 5.609375 19.09375 5.609375 36.375 
Q 5.609375 53.65625 14.8125 63.9375 
Q 24.03125 74.21875 39.40625 74.21875 
z
" id="DejaVuSans-79"/>
     <path d="M 41.109375 46.296875 
Q 39.59375 47.171875 37.8125 47.578125 
Q 36.03125 48 33.890625 48 
Q 26.265625 48 22.1875 43.046875 
Q 18.109375 38.09375 18.109375 28.8125 
L 18.109375 0 
L 9.078125 0 
L 9.078125 54.6875 
L 18.109375 54.6875 
L 18.109375 46.1875 
Q 20.953125 51.171875 25.484375 53.578125 
Q 30.03125 56 36.53125 56 
Q 37.453125 56 38.578125 55.875 
Q 39.703125 55.765625 41.0625 55.515625 
z
" id="DejaVuSans-114"/>
     <path d="M 9.421875 54.6875 
L 18.40625 54.6875 
L 18.40625 0 
L 9.421875 0 
z
M 9.421875 75.984375 
L 18.40625 75.984375 
L 18.40625 64.59375 
L 9.421875 64.59375 
z
" id="DejaVuSans-105"/>
     <path d="M 45.40625 27.984375 
Q 45.40625 37.75 41.375 43.109375 
Q 37.359375 48.484375 30.078125 48.484375 
Q 22.859375 48.484375 18.828125 43.109375 
Q 14.796875 37.75 14.796875 27.984375 
Q 14.796875 18.265625 18.828125 12.890625 
Q 22.859375 7.515625 30.078125 7.515625 
Q 37.359375 7.515625 41.375 12.890625 
Q 45.40625 18.265625 45.40625 27.984375 
z
M 54.390625 6.78125 
Q 54.390625 -7.171875 48.1875 -13.984375 
Q 42 -20.796875 29.203125 -20.796875 
Q 24.46875 -20.796875 20.265625 -20.09375 
Q 16.0625 -19.390625 12.109375 -17.921875 
L 12.109375 -9.1875 
Q 16.0625 -11.328125 19.921875 -12.34375 
Q 23.78125 -13.375 27.78125 -13.375 
Q 36.625 -13.375 41.015625 -8.765625 
Q 45.40625 -4.15625 45.40625 5.171875 
L 45.40625 9.625 
Q 42.625 4.78125 38.28125 2.390625 
Q 33.9375 0 27.875 0 
Q 17.828125 0 11.671875 7.65625 
Q 5.515625 15.328125 5.515625 27.984375 
Q 5.515625 40.671875 11.671875 48.328125 
Q 17.828125 56 27.875 56 
Q 33.9375 56 38.28125 53.609375 
Q 42.625 51.21875 45.40625 46.390625 
L 45.40625 54.6875 
L 54.390625 54.6875 
z
" id="DejaVuSans-103"/>
     <path d="M 54.890625 33.015625 
L 54.890625 0 
L 45.90625 0 
L 45.90625 32.71875 
Q 45.90625 40.484375 42.875 44.328125 
Q 39.84375 48.1875 33.796875 48.1875 
Q 26.515625 48.1875 22.3125 43.546875 
Q 18.109375 38.921875 18.109375 30.90625 
L 18.109375 0 
L 9.078125 0 
L 9.078125 54.6875 
L 18.109375 54.6875 
L 18.109375 46.1875 
Q 21.34375 51.125 25.703125 53.5625 
Q 30.078125 56 35.796875 56 
Q 45.21875 56 50.046875 50.171875 
Q 54.890625 44.34375 54.890625 33.015625 
z
" id="DejaVuSans-110"/>
     <path d="M 34.28125 27.484375 
Q 23.390625 27.484375 19.1875 25 
Q 14.984375 22.515625 14.984375 16.5 
Q 14.984375 11.71875 18.140625 8.90625 
Q 21.296875 6.109375 26.703125 6.109375 
Q 34.1875 6.109375 38.703125 11.40625 
Q 43.21875 16.703125 43.21875 25.484375 
L 43.21875 27.484375 
z
M 52.203125 31.203125 
L 52.203125 0 
L 43.21875 0 
L 43.21875 8.296875 
Q 40.140625 3.328125 35.546875 0.953125 
Q 30.953125 -1.421875 24.3125 -1.421875 
Q 15.921875 -1.421875 10.953125 3.296875 
Q 6 8.015625 6 15.921875 
Q 6 25.140625 12.171875 29.828125 
Q 18.359375 34.515625 30.609375 34.515625 
L 43.21875 34.515625 
L 43.21875 35.40625 
Q 43.21875 41.609375 39.140625 45 
Q 35.0625 48.390625 27.6875 48.390625 
Q 23 48.390625 18.546875 47.265625 
Q 14.109375 46.140625 10.015625 43.890625 
L 10.015625 52.203125 
Q 14.9375 54.109375 19.578125 55.046875 
Q 24.21875 56 28.609375 56 
Q 40.484375 56 46.34375 49.84375 
Q 52.203125 43.703125 52.203125 31.203125 
z
" id="DejaVuSans-97"/>
     <path d="M 9.421875 75.984375 
L 18.40625 75.984375 
L 18.40625 0 
L 9.421875 0 
z
" id="DejaVuSans-108"/>
     <path id="DejaVuSans-32"/>
     <path d="M 44.28125 53.078125 
L 44.28125 44.578125 
Q 40.484375 46.53125 36.375 47.5 
Q 32.28125 48.484375 27.875 48.484375 
Q 21.1875 48.484375 17.84375 46.4375 
Q 14.5 44.390625 14.5 40.28125 
Q 14.5 37.15625 16.890625 35.375 
Q 19.28125 33.59375 26.515625 31.984375 
L 29.59375 31.296875 
Q 39.15625 29.25 43.1875 25.515625 
Q 47.21875 21.78125 47.21875 15.09375 
Q 47.21875 7.46875 41.1875 3.015625 
Q 35.15625 -1.421875 24.609375 -1.421875 
Q 20.21875 -1.421875 15.453125 -0.5625 
Q 10.6875 0.296875 5.421875 2 
L 5.421875 11.28125 
Q 10.40625 8.6875 15.234375 7.390625 
Q 20.0625 6.109375 24.8125 6.109375 
Q 31.15625 6.109375 34.5625 8.28125 
Q 37.984375 10.453125 37.984375 14.40625 
Q 37.984375 18.0625 35.515625 20.015625 
Q 33.0625 21.96875 24.703125 23.78125 
L 21.578125 24.515625 
Q 13.234375 26.265625 9.515625 29.90625 
Q 5.8125 33.546875 5.8125 39.890625 
Q 5.8125 47.609375 11.28125 51.796875 
Q 16.75 56 26.8125 56 
Q 31.78125 56 36.171875 55.265625 
Q 40.578125 54.546875 44.28125 53.078125 
z
" id="DejaVuSans-115"/>
    </defs>
    <g transform="translate(201.611563 19.44)scale(0.12 -0.12)">
     <use xlink:href="#DejaVuSans-79"/>
     <use x="78.710938" xlink:href="#DejaVuSans-114"/>
     <use x="119.824219" xlink:href="#DejaVuSans-105"/>
     <use x="147.607422" xlink:href="#DejaVuSans-103"/>
     <use x="211.083984" xlink:href="#DejaVuSans-105"/>
     <use x="238.867188" xlink:href="#DejaVuSans-110"/>
     <use x="302.246094" xlink:href="#DejaVuSans-97"/>
     <use x="363.525391" xlink:href="#DejaVuSans-108"/>
     <use x="391.308594" xlink:href="#DejaVuSans-32"/>
     <use x="423.095703" xlink:href="#DejaVuSans-115"/>
     <use x="475.195312" xlink:href="#DejaVuSans-105"/>
     <use x="502.978516" xlink:href="#DejaVuSans-103"/>
     <use x="566.455078" xlink:href="#DejaVuSans-110"/>
     <use x="629.833984" xlink:href="#DejaVuSans-97"/>
     <use x="691.113281" xlink:href="#DejaVuSans-108"/>
    </g>
   </g>
  </g>
  <g id="axes_2">
   <g id="patch_7">
    <path d="M 42.01 206.12 
L 447.48 206.12 
L 447.48 137.04 
L 42.01 137.04 
z
" style="fill:#ffffff;"/>
   </g>
   <g id="matplotlib.axis_3">
    <g id="xtick_6">
     <g id="line2d_10">
      <g>
       <use style="stroke:#000000;stroke-width:0.8;" x="60.440455" xlink:href="#m137d969a53" y="206.12"/>
      </g>
     </g>
     <g id="text_10">
      <!-- 0.0000 -->
      <g transform="translate(42.945142 220.718437)scale(0.1 -0.1)">
       <use xlink:href="#DejaVuSans-48"/>
       <use x="63.623047" xlink:href="#DejaVuSans-46"/>
       <use x="95.410156" xlink:href="#DejaVuSans-48"/>
       <use x="159.033203" xlink:href="#DejaVuSans-48"/>
       <use x="222.65625" xlink:href="#DejaVuSans-48"/>
       <use x="286.279297" xlink:href="#DejaVuSans-48"/>
      </g>
     </g>
    </g>
    <g id="xtick_7">
     <g id="line2d_11">
      <g>
       <use style="stroke:#000000;stroke-width:0.8;" x="130.894648" xlink:href="#m137d969a53" y="206.12"/>
      </g>
     </g>
     <g id="text_11">
      <!-- 0.0005 -->
      <g transform="translate(113.399335 220.718437)scale(0.1 -0.1)">
       <use xlink:href="#DejaVuSans-48"/>
       <use x="63.623047" xlink:href="#DejaVuSans-46"/>
       <use x="95.410156" xlink:href="#DejaVuSans-48"/>
       <use x="159.033203" xlink:href="#DejaVuSans-48"/>
       <use x="222.65625" xlink:href="#DejaVuSans-48"/>
       <use x="286.279297" xlink:href="#DejaVuSans-53"/>
      </g>
     </g>
    </g>
    <g id="xtick_8">
     <g id="line2d_12">
      <g>
       <use style="stroke:#000000;stroke-width:0.8;" x="201.348841" xlink:href="#m137d969a53" y="206.12"/>
      </g>
     </g>
     <g id="text_12">
      <!-- 0.0010 -->
      <defs>
       <path d="M 12.40625 8.296875 
L 28.515625 8.296875 
L 28.515625 63.921875 
L 10.984375 60.40625 
L 10.984375 69.390625 
L 28.421875 72.90625 
L 38.28125 72.90625 
L 38.28125 8.296875 
L 54.390625 8.296875 
L 54.390625 0 
L 12.40625 0 
z
" id="DejaVuSans-49"/>
      </defs>
      <g transform="translate(183.853528 220.718437)scale(0.1 -0.1)">
       <use xlink:href="#DejaVuSans-48"/>
       <use x="63.623047" xlink:href="#DejaVuSans-46"/>
       <use x="95.410156" xlink:href="#DejaVuSans-48"/>
       <use x="159.033203" xlink:href="#DejaVuSans-48"/>
       <use x="222.65625" xlink:href="#DejaVuSans-49"/>
       <use x="286.279297" xlink:href="#DejaVuSans-48"/>
      </g>
     </g>
    </g>
    <g id="xtick_9">
     <g id="line2d_13">
      <g>
       <use style="stroke:#000000;stroke-width:0.8;" x="271.803034" xlink:href="#m137d969a53" y="206.12"/>
      </g>
     </g>
     <g id="text_13">
      <!-- 0.0015 -->
      <g transform="translate(254.307721 220.718437)scale(0.1 -0.1)">
       <use xlink:href="#DejaVuSans-48"/>
       <use x="63.623047" xlink:href="#DejaVuSans-46"/>
       <use x="95.410156" xlink:href="#DejaVuSans-48"/>
       <use x="159.033203" xlink:href="#DejaVuSans-48"/>
       <use x="222.65625" xlink:href="#DejaVuSans-49"/>
       <use x="286.279297" xlink:href="#DejaVuSans-53"/>
      </g>
     </g>
    </g>
    <g id="xtick_10">
     <g id="line2d_14">
      <g>
       <use style="stroke:#000000;stroke-width:0.8;" x="342.257227" xlink:href="#m137d969a53" y="206.12"/>
      </g>
     </g>
     <g id="text_14">
      <!-- 0.0020 -->
      <g transform="translate(324.761914 220.718437)scale(0.1 -0.1)">
       <use xlink:href="#DejaVuSans-48"/>
       <use x="63.623047" xlink:href="#DejaVuSans-46"/>
       <use x="95.410156" xlink:href="#DejaVuSans-48"/>
       <use x="159.033203" xlink:href="#DejaVuSans-48"/>
       <use x="222.65625" xlink:href="#DejaVuSans-50"/>
       <use x="286.279297" xlink:href="#DejaVuSans-48"/>
      </g>
     </g>
    </g>
    <g id="xtick_11">
     <g id="line2d_15">
      <g>
       <use style="stroke:#000000;stroke-width:0.8;" x="412.71142" xlink:href="#m137d969a53" y="206.12"/>
      </g>
     </g>
     <g id="text_15">
      <!-- 0.0025 -->
      <g transform="translate(395.216107 220.718437)scale(0.1 -0.1)">
       <use xlink:href="#DejaVuSans-48"/>
       <use x="63.623047" xlink:href="#DejaVuSans-46"/>
       <use x="95.410156" xlink:href="#DejaVuSans-48"/>
       <use x="159.033203" xlink:href="#DejaVuSans-48"/>
       <use x="222.65625" xlink:href="#DejaVuSans-50"/>
       <use x="286.279297" xlink:href="#DejaVuSans-53"/>
      </g>
     </g>
    </g>
   </g>
   <g id="matplotlib.axis_4">
    <g id="ytick_4">
     <g id="line2d_16">
      <g>
       <use style="stroke:#000000;stroke-width:0.8;" x="42.01" xlink:href="#m3153bd20da" y="202.98"/>
      </g>
     </g>
     <g id="text_16">
      <!-- −1 -->
      <g transform="translate(20.267812 206.779219)scale(0.1 -0.1)">
       <use xlink:href="#DejaVuSans-8722"/>
       <use x="83.789062" xlink:href="#DejaVuSans-49"/>
      </g>
     </g>
    </g>
    <g id="ytick_5">
     <g id="line2d_17">
      <g>
       <use style="stroke:#000000;stroke-width:0.8;" x="42.01" xlink:href="#m3153bd20da" y="171.58"/>
      </g>
     </g>
     <g id="text_17">
      <!-- 0 -->
      <g transform="translate(28.6475 175.379219)scale(0.1 -0.1)">
       <use xlink:href="#DejaVuSans-48"/>
      </g>
     </g>
    </g>
    <g id="ytick_6">
     <g id="line2d_18">
      <g>
       <use style="stroke:#000000;stroke-width:0.8;" x="42.01" xlink:href="#m3153bd20da" y="140.18"/>
      </g>
     </g>
     <g id="text_18">
      <!-- 1 -->
      <g transform="translate(28.6475 143.979219)scale(0.1 -0.1)">
       <use xlink:href="#DejaVuSans-49"/>
      </g>
     </g>
    </g>
   </g>
   <g id="line2d_19">
    <path clip-path="url(#p58e2846f01)" d="M 60.440455 202.98 
L 62.746063 202.98 
L 63.034264 140.18 
L 63.322465 202.98 
L 64.475269 202.98 
L 64.76347 140.18 
L 65.051671 140.18 
L 65.339872 202.98 
L 65.628073 140.18 
L 65.916274 202.98 
L 66.204475 140.18 
L 66.492676 202.98 
L 66.780877 202.98 
L 67.069078 140.18 
L 67.357279 140.18 
L 67.64548 202.98 
L 68.221882 202.98 
L 68.510083 140.18 
L 68.798284 202.98 
L 70.239289 202.98 
L 70.52749 140.18 
L 70.815691 202.98 
L 71.968495 202.98 
L 72.256696 140.18 
L 72.544897 202.98 
L 72.833098 140.18 
L 73.121299 202.98 
L 73.697701 202.98 
L 73.985902 140.18 
L 74.274103 202.98 
L 75.138706 202.98 
L 75.426907 140.18 
L 75.715108 202.98 
L 76.579711 202.98 
L 76.867912 140.18 
L 77.444314 140.18 
L 77.732515 202.98 
L 78.020716 202.98 
L 78.308917 140.18 
L 78.597118 202.98 
L 79.461721 202.98 
L 79.749922 140.18 
L 80.326324 140.18 
L 80.614525 202.98 
L 80.902726 140.18 
L 81.190927 202.98 
L 81.479128 140.18 
L 81.767329 202.98 
L 84.072937 202.98 
L 84.361138 140.18 
L 84.649339 140.18 
L 84.93754 202.98 
L 85.225741 140.18 
L 85.513942 140.18 
L 85.802143 202.98 
L 86.090344 202.98 
L 86.378545 140.18 
L 87.243148 140.18 
L 87.531349 202.98 
L 88.684153 202.98 
L 88.972354 140.18 
L 89.260555 140.18 
L 89.548756 202.98 
L 89.836957 202.98 
L 90.125159 140.18 
L 90.41336 140.18 
L 90.701561 202.98 
L 91.277963 202.98 
L 91.566164 140.18 
L 91.854365 202.98 
L 92.142566 140.18 
L 92.430767 202.98 
L 92.718968 140.18 
L 93.007169 202.98 
L 93.29537 140.18 
L 93.583571 202.98 
L 93.871772 202.98 
L 94.159973 140.18 
L 94.448174 140.18 
L 94.736375 202.98 
L 95.889179 202.98 
L 96.17738 140.18 
L 96.465581 202.98 
L 96.753782 140.18 
L 97.618385 140.18 
L 97.906586 202.98 
L 98.194787 202.98 
L 98.482988 140.18 
L 99.05939 140.18 
L 99.347591 202.98 
L 99.635792 202.98 
L 99.923993 140.18 
L 100.500395 140.18 
L 100.788596 202.98 
L 101.076797 140.18 
L 101.653199 140.18 
L 101.9414 202.98 
L 102.229601 202.98 
L 102.517802 140.18 
L 102.806003 140.18 
L 103.094204 202.98 
L 103.382405 140.18 
L 103.670606 202.98 
L 103.958807 202.98 
L 104.247008 140.18 
L 104.535209 140.18 
L 104.82341 202.98 
L 105.688013 202.98 
L 105.976214 140.18 
L 106.264415 202.98 
L 106.552616 140.18 
L 107.129018 140.18 
L 107.417219 202.98 
L 107.70542 140.18 
L 107.993621 140.18 
L 108.281822 202.98 
L 108.570023 140.18 
L 109.146425 140.18 
L 109.434626 202.98 
L 109.722827 140.18 
L 110.011028 202.98 
L 110.299229 202.98 
L 110.58743 140.18 
L 112.028435 140.18 
L 112.316636 202.98 
L 112.604837 202.98 
L 112.893038 140.18 
L 113.181239 202.98 
L 113.46944 140.18 
L 114.045842 140.18 
L 114.334043 202.98 
L 114.622244 140.18 
L 114.910445 202.98 
L 115.198646 140.18 
L 116.639651 140.18 
L 116.927852 202.98 
L 117.216053 140.18 
L 117.504254 140.18 
L 117.792455 202.98 
L 118.080656 202.98 
L 118.368857 140.18 
L 118.657058 140.18 
L 118.945259 202.98 
L 119.23346 140.18 
L 120.098063 140.18 
L 120.386264 202.98 
L 120.674465 202.98 
L 120.962667 140.18 
L 121.82727 140.18 
L 122.115471 202.98 
L 122.403672 140.18 
L 122.691873 140.18 
L 122.980074 202.98 
L 123.268275 140.18 
L 124.132878 140.18 
L 124.421079 202.98 
L 124.70928 140.18 
L 124.997481 202.98 
L 125.285682 140.18 
L 125.573883 140.18 
L 125.862084 202.98 
L 126.438486 202.98 
L 126.726687 140.18 
L 127.303089 140.18 
L 127.59129 202.98 
L 127.879491 140.18 
L 128.455893 140.18 
L 128.744094 202.98 
L 129.032295 140.18 
L 129.320496 140.18 
L 129.608697 202.98 
L 129.896898 140.18 
L 131.049702 140.18 
L 131.337903 202.98 
L 131.914305 202.98 
L 132.202506 140.18 
L 132.778908 140.18 
L 133.067109 202.98 
L 133.931712 202.98 
L 134.219913 140.18 
L 134.508114 202.98 
L 134.796315 140.18 
L 135.372717 140.18 
L 135.660918 202.98 
L 135.949119 140.18 
L 136.23732 140.18 
L 136.525521 202.98 
L 136.813722 140.18 
L 139.11933 140.18 
L 139.407531 202.98 
L 139.695732 140.18 
L 139.983933 202.98 
L 140.272134 202.98 
L 140.560335 140.18 
L 142.289541 140.18 
L 142.577742 202.98 
L 142.865943 140.18 
L 143.154144 140.18 
L 143.442345 202.98 
L 143.730546 140.18 
L 144.595149 140.18 
L 144.88335 202.98 
L 145.171551 202.98 
L 145.459752 140.18 
L 145.747953 202.98 
L 146.036154 202.98 
L 146.324355 140.18 
L 147.188958 140.18 
L 147.477159 202.98 
L 147.76536 140.18 
L 148.053561 202.98 
L 148.341762 140.18 
L 148.629963 202.98 
L 148.918164 140.18 
L 149.206365 202.98 
L 149.494566 140.18 
L 150.070968 140.18 
L 150.359169 202.98 
L 150.64737 140.18 
L 152.952979 140.18 
L 153.24118 202.98 
L 154.105783 202.98 
L 154.393984 140.18 
L 156.699592 140.18 
L 156.987793 202.98 
L 157.275994 140.18 
L 158.428798 140.18 
L 158.716999 202.98 
L 159.0052 202.98 
L 159.293401 140.18 
L 159.581602 202.98 
L 159.869803 140.18 
L 160.158004 140.18 
L 160.446205 202.98 
L 161.310808 202.98 
L 161.599009 140.18 
L 161.88721 202.98 
L 162.175411 140.18 
L 162.751813 140.18 
L 163.040014 202.98 
L 163.328215 140.18 
L 164.192818 140.18 
L 164.481019 202.98 
L 164.76922 140.18 
L 165.345622 140.18 
L 165.633823 202.98 
L 165.922024 140.18 
L 167.65123 140.18 
L 167.939431 202.98 
L 168.227632 202.98 
L 168.515833 140.18 
L 168.804034 202.98 
L 169.380436 202.98 
L 169.668637 140.18 
L 170.245039 140.18 
L 170.53324 202.98 
L 170.821441 140.18 
L 171.109642 140.18 
L 171.397843 202.98 
L 171.686044 140.18 
L 171.974245 140.18 
L 172.262446 202.98 
L 172.550647 140.18 
L 172.838848 202.98 
L 173.127049 140.18 
L 173.703451 140.18 
L 173.991652 202.98 
L 174.279853 140.18 
L 176.585461 140.18 
L 176.873662 202.98 
L 177.161863 140.18 
L 178.891069 140.18 
L 179.17927 202.98 
L 179.467471 140.18 
L 179.755672 140.18 
L 180.043873 202.98 
L 180.332074 202.98 
L 180.620275 140.18 
L 180.908476 140.18 
L 181.196677 202.98 
L 181.484878 140.18 
L 182.06128 140.18 
L 182.349481 202.98 
L 182.637682 140.18 
L 182.925884 140.18 
L 183.214085 202.98 
L 183.502286 140.18 
L 184.366889 140.18 
L 184.65509 202.98 
L 184.943291 140.18 
L 187.248899 140.18 
L 187.5371 202.98 
L 188.113502 202.98 
L 188.401703 140.18 
L 188.689904 202.98 
L 188.978105 140.18 
L 189.266306 140.18 
L 189.554507 202.98 
L 189.842708 140.18 
L 191.283713 140.18 
L 191.571914 202.98 
L 191.860115 140.18 
L 192.148316 140.18 
L 192.436517 202.98 
L 192.724718 140.18 
L 193.012919 140.18 
L 193.30112 202.98 
L 193.589321 140.18 
L 194.165723 140.18 
L 194.453924 202.98 
L 194.742125 140.18 
L 195.030326 202.98 
L 195.318527 140.18 
L 196.471331 140.18 
L 196.759532 202.98 
L 197.047733 140.18 
L 197.335934 140.18 
L 197.624135 202.98 
L 197.912336 202.98 
L 198.200537 140.18 
L 198.488738 202.98 
L 198.776939 140.18 
L 199.06514 202.98 
L 199.353341 140.18 
L 201.658949 140.18 
L 201.94715 202.98 
L 202.235351 140.18 
L 203.388155 140.18 
L 203.676356 202.98 
L 203.964557 202.98 
L 204.252758 140.18 
L 204.540959 202.98 
L 204.82916 140.18 
L 205.405562 140.18 
L 205.693763 202.98 
L 205.981964 202.98 
L 206.270165 140.18 
L 206.558366 140.18 
L 206.846567 202.98 
L 207.134768 140.18 
L 208.287572 140.18 
L 208.575773 202.98 
L 208.863974 140.18 
L 209.152175 202.98 
L 209.440376 140.18 
L 211.169582 140.18 
L 211.457783 202.98 
L 211.745984 140.18 
L 212.034185 202.98 
L 212.322386 202.98 
L 212.610587 140.18 
L 212.898788 202.98 
L 213.186989 140.18 
L 213.47519 202.98 
L 213.763391 140.18 
L 214.051593 140.18 
L 214.339794 202.98 
L 214.627995 140.18 
L 214.916196 202.98 
L 215.204397 140.18 
L 215.492598 202.98 
L 215.780799 202.98 
L 216.069 140.18 
L 216.357201 140.18 
L 216.645402 202.98 
L 216.933603 202.98 
L 217.221804 140.18 
L 217.510005 202.98 
L 217.798206 140.18 
L 218.086407 202.98 
L 218.374608 202.98 
L 218.662809 140.18 
L 218.95101 140.18 
L 219.239211 202.98 
L 219.815613 202.98 
L 220.103814 140.18 
L 220.392015 202.98 
L 220.680216 140.18 
L 221.256618 140.18 
L 221.544819 202.98 
L 221.83302 202.98 
L 222.121221 140.18 
L 222.409422 140.18 
L 222.697623 202.98 
L 222.985824 202.98 
L 223.274025 140.18 
L 223.562226 202.98 
L 223.850427 140.18 
L 224.138628 202.98 
L 224.426829 140.18 
L 224.71503 140.18 
L 225.003231 202.98 
L 225.579633 202.98 
L 225.867834 140.18 
L 226.156035 140.18 
L 226.444236 202.98 
L 226.732437 202.98 
L 227.020638 140.18 
L 227.308839 140.18 
L 227.59704 202.98 
L 227.885241 140.18 
L 228.173442 140.18 
L 228.461643 202.98 
L 228.749844 140.18 
L 229.326246 140.18 
L 229.614447 202.98 
L 230.767251 202.98 
L 231.055452 140.18 
L 231.343653 202.98 
L 231.631854 140.18 
L 231.920055 202.98 
L 232.784658 202.98 
L 233.072859 140.18 
L 233.36106 202.98 
L 233.649261 202.98 
L 233.937462 140.18 
L 234.225663 202.98 
L 234.513864 140.18 
L 234.802065 140.18 
L 235.090266 202.98 
L 235.666668 202.98 
L 235.954869 140.18 
L 236.24307 140.18 
L 236.531271 202.98 
L 236.819472 202.98 
L 237.107673 140.18 
L 237.395874 140.18 
L 237.684075 202.98 
L 238.548678 202.98 
L 238.836879 140.18 
L 239.12508 140.18 
L 239.413281 202.98 
L 239.701482 140.18 
L 239.989683 202.98 
L 240.566085 202.98 
L 240.854286 140.18 
L 241.142487 202.98 
L 241.430688 140.18 
L 241.718889 202.98 
L 243.448095 202.98 
L 243.736296 140.18 
L 244.024497 202.98 
L 244.889101 202.98 
L 245.177302 140.18 
L 245.465503 202.98 
L 245.753704 140.18 
L 246.041905 140.18 
L 246.330106 202.98 
L 246.618307 140.18 
L 246.906508 202.98 
L 247.194709 140.18 
L 247.48291 202.98 
L 249.212116 202.98 
L 249.500317 140.18 
L 249.788518 202.98 
L 250.076719 140.18 
L 250.36492 202.98 
L 250.653121 202.98 
L 250.941322 140.18 
L 251.229523 202.98 
L 251.805925 202.98 
L 252.094126 140.18 
L 252.382327 202.98 
L 254.399734 202.98 
L 254.687935 140.18 
L 254.976136 202.98 
L 256.417141 202.98 
L 256.705342 140.18 
L 256.993543 140.18 
L 257.281744 202.98 
L 257.569945 202.98 
L 257.858146 140.18 
L 258.146347 202.98 
L 258.434548 140.18 
L 258.722749 202.98 
L 259.01095 140.18 
L 259.299151 202.98 
L 260.163754 202.98 
L 260.451955 140.18 
L 260.740156 140.18 
L 261.028357 202.98 
L 261.316558 202.98 
L 261.604759 140.18 
L 261.89296 202.98 
L 262.181161 140.18 
L 262.469362 202.98 
L 263.622166 202.98 
L 263.910367 140.18 
L 264.198568 202.98 
L 265.639573 202.98 
L 265.927774 140.18 
L 266.215975 202.98 
L 266.504176 140.18 
L 266.792377 202.98 
L 267.945181 202.98 
L 268.233382 140.18 
L 268.521583 202.98 
L 268.809784 202.98 
L 269.097985 140.18 
L 269.386186 202.98 
L 270.827191 202.98 
L 271.115392 140.18 
L 271.403593 140.18 
L 271.691794 202.98 
L 272.268196 202.98 
L 272.556397 140.18 
L 272.844598 202.98 
L 273.709201 202.98 
L 273.997402 140.18 
L 274.285603 202.98 
L 275.726609 202.98 
L 276.01481 140.18 
L 276.303011 140.18 
L 276.591212 202.98 
L 278.320418 202.98 
L 278.608619 140.18 
L 278.89682 140.18 
L 279.185021 202.98 
L 280.626026 202.98 
L 280.914227 140.18 
L 281.202428 202.98 
L 281.490629 140.18 
L 281.77883 202.98 
L 282.067031 140.18 
L 282.355232 202.98 
L 282.643433 140.18 
L 282.931634 140.18 
L 283.219835 202.98 
L 283.796237 202.98 
L 284.084438 140.18 
L 284.372639 202.98 
L 284.949041 202.98 
L 285.237242 140.18 
L 285.525443 202.98 
L 285.813644 140.18 
L 286.101845 202.98 
L 287.254649 202.98 
L 287.54285 140.18 
L 287.831051 202.98 
L 288.119252 202.98 
L 288.407453 140.18 
L 288.695654 140.18 
L 288.983855 202.98 
L 289.560257 202.98 
L 289.848458 140.18 
L 290.136659 202.98 
L 291.577664 202.98 
L 291.865865 140.18 
L 292.154066 202.98 
L 294.171473 202.98 
L 294.459674 140.18 
L 294.747875 202.98 
L 295.324277 202.98 
L 295.612478 140.18 
L 295.900679 140.18 
L 296.18888 202.98 
L 297.341684 202.98 
L 297.629885 140.18 
L 297.918086 140.18 
L 298.206287 202.98 
L 298.494488 202.98 
L 298.782689 140.18 
L 299.07089 202.98 
L 299.359091 202.98 
L 299.647292 140.18 
L 299.935493 202.98 
L 300.223694 140.18 
L 300.511895 202.98 
L 301.376498 202.98 
L 301.664699 140.18 
L 301.9529 140.18 
L 302.241101 202.98 
L 302.529302 140.18 
L 302.817503 202.98 
L 303.105704 202.98 
L 303.393905 140.18 
L 303.682106 202.98 
L 305.123111 202.98 
L 305.411312 140.18 
L 305.699513 202.98 
L 305.987714 140.18 
L 306.275915 140.18 
L 306.564116 202.98 
L 308.005122 202.98 
L 308.293323 140.18 
L 308.581524 202.98 
L 308.869725 202.98 
L 309.157926 140.18 
L 309.446127 140.18 
L 309.734328 202.98 
L 310.31073 202.98 
L 310.598931 140.18 
L 310.887132 202.98 
L 311.175333 202.98 
L 311.463534 140.18 
L 311.751735 202.98 
L 312.039936 140.18 
L 312.328137 140.18 
L 312.616338 202.98 
L 312.904539 140.18 
L 313.19274 202.98 
L 313.480941 140.18 
L 314.057343 140.18 
L 314.345544 202.98 
L 314.633745 140.18 
L 314.921946 140.18 
L 315.210147 202.98 
L 315.498348 202.98 
L 315.786549 140.18 
L 316.07475 202.98 
L 316.362951 140.18 
L 316.651152 202.98 
L 316.939353 140.18 
L 317.227554 202.98 
L 317.515755 202.98 
L 317.803956 140.18 
L 318.092157 202.98 
L 318.380358 202.98 
L 318.668559 140.18 
L 318.95676 140.18 
L 319.244961 202.98 
L 319.533162 140.18 
L 320.974167 140.18 
L 321.262368 202.98 
L 322.126971 202.98 
L 322.415172 140.18 
L 322.703373 140.18 
L 322.991574 202.98 
L 323.279775 140.18 
L 323.567976 202.98 
L 323.856177 140.18 
L 324.144378 202.98 
L 324.432579 140.18 
L 324.72078 140.18 
L 325.008981 202.98 
L 325.297182 140.18 
L 325.585383 140.18 
L 325.873584 202.98 
L 326.161785 140.18 
L 326.449986 202.98 
L 326.738187 140.18 
L 327.026388 140.18 
L 327.314589 202.98 
L 327.60279 140.18 
L 327.890991 140.18 
L 328.179192 202.98 
L 328.467393 140.18 
L 328.755594 202.98 
L 329.043795 140.18 
L 329.331996 202.98 
L 329.620197 202.98 
L 329.908398 140.18 
L 330.196599 140.18 
L 330.4848 202.98 
L 331.349403 202.98 
L 331.637604 140.18 
L 331.925805 140.18 
L 332.214006 202.98 
L 332.502207 140.18 
L 334.519614 140.18 
L 334.807815 202.98 
L 335.096016 140.18 
L 335.384217 140.18 
L 335.672418 202.98 
L 335.960619 140.18 
L 336.537021 140.18 
L 336.825222 202.98 
L 337.113423 140.18 
L 337.401624 202.98 
L 337.689826 202.98 
L 337.978027 140.18 
L 338.554429 140.18 
L 338.84263 202.98 
L 339.130831 140.18 
L 340.283635 140.18 
L 340.571836 202.98 
L 340.860037 140.18 
L 341.148238 202.98 
L 341.72464 202.98 
L 342.012841 140.18 
L 343.742047 140.18 
L 344.030248 202.98 
L 344.318449 140.18 
L 345.471253 140.18 
L 345.759454 202.98 
L 346.047655 202.98 
L 346.335856 140.18 
L 346.912258 140.18 
L 347.200459 202.98 
L 347.48866 202.98 
L 347.776861 140.18 
L 348.065062 202.98 
L 348.353263 140.18 
L 349.217866 140.18 
L 349.506067 202.98 
L 349.794268 140.18 
L 351.811675 140.18 
L 352.099876 202.98 
L 352.388077 140.18 
L 352.676278 202.98 
L 352.964479 140.18 
L 353.25268 202.98 
L 353.540881 140.18 
L 353.829082 140.18 
L 354.117283 202.98 
L 354.405484 140.18 
L 354.693685 202.98 
L 355.270087 202.98 
L 355.558288 140.18 
L 355.846489 202.98 
L 356.13469 140.18 
L 356.422891 202.98 
L 356.711092 140.18 
L 356.999293 202.98 
L 357.287494 202.98 
L 357.575695 140.18 
L 357.863896 202.98 
L 358.152097 140.18 
L 360.169504 140.18 
L 360.457705 202.98 
L 360.745906 140.18 
L 361.034107 202.98 
L 361.322308 202.98 
L 361.610509 140.18 
L 361.89871 202.98 
L 362.186911 140.18 
L 362.475112 202.98 
L 362.763313 140.18 
L 364.492519 140.18 
L 364.78072 202.98 
L 365.357122 202.98 
L 365.645323 140.18 
L 365.933524 202.98 
L 366.221725 140.18 
L 366.509926 140.18 
L 366.798127 202.98 
L 367.086328 140.18 
L 367.374529 202.98 
L 367.66273 140.18 
L 369.103736 140.18 
L 369.391937 202.98 
L 369.680138 202.98 
L 369.968339 140.18 
L 370.25654 202.98 
L 370.544741 140.18 
L 372.562148 140.18 
L 372.850349 202.98 
L 373.13855 140.18 
L 374.003153 140.18 
L 374.291354 202.98 
L 374.579555 140.18 
L 374.867756 140.18 
L 375.155957 202.98 
L 375.444158 140.18 
L 375.732359 202.98 
L 376.02056 140.18 
L 376.308761 202.98 
L 376.596962 140.18 
L 377.461565 140.18 
L 377.749766 202.98 
L 378.037967 140.18 
L 379.190771 140.18 
L 379.478972 202.98 
L 379.767173 140.18 
L 380.631776 140.18 
L 380.919977 202.98 
L 381.208178 140.18 
L 381.496379 202.98 
L 381.78458 140.18 
L 382.072781 202.98 
L 382.360982 140.18 
L 382.937384 140.18 
L 383.225585 202.98 
L 383.513786 140.18 
L 385.242992 140.18 
L 385.531193 202.98 
L 386.107595 202.98 
L 386.395796 140.18 
L 386.683997 202.98 
L 386.972198 140.18 
L 387.5486 140.18 
L 387.836801 202.98 
L 388.125002 202.98 
L 388.413203 140.18 
L 389.277806 140.18 
L 389.566007 202.98 
L 389.854208 140.18 
L 390.718811 140.18 
L 391.007012 202.98 
L 391.295213 140.18 
L 391.583414 202.98 
L 391.871615 140.18 
L 392.159816 202.98 
L 392.448017 140.18 
L 392.736218 202.98 
L 393.024419 140.18 
L 393.31262 140.18 
L 393.600821 202.98 
L 393.889022 140.18 
L 394.177223 140.18 
L 394.465424 202.98 
L 394.753625 140.18 
L 395.041826 140.18 
L 395.330027 202.98 
L 395.618228 140.18 
L 395.906429 202.98 
L 396.19463 140.18 
L 396.771032 140.18 
L 397.059233 202.98 
L 397.347434 140.18 
L 397.923836 140.18 
L 398.212037 202.98 
L 398.500238 140.18 
L 399.07664 140.18 
L 399.364841 202.98 
L 399.653043 202.98 
L 399.941244 140.18 
L 401.382249 140.18 
L 401.67045 202.98 
L 401.958651 140.18 
L 404.840661 140.18 
L 405.128862 202.98 
L 405.417063 140.18 
L 406.569867 140.18 
L 406.858068 202.98 
L 407.146269 140.18 
L 407.43447 140.18 
L 407.722671 202.98 
L 408.010872 140.18 
L 408.299073 140.18 
L 408.587274 202.98 
L 408.875475 140.18 
L 409.740078 140.18 
L 410.028279 202.98 
L 410.31648 140.18 
L 410.604681 140.18 
L 410.892882 202.98 
L 411.181083 202.98 
L 411.469284 140.18 
L 411.757485 202.98 
L 412.045686 140.18 
L 412.333887 140.18 
L 412.622088 202.98 
L 412.910289 202.98 
L 413.19849 140.18 
L 413.486691 140.18 
L 413.774892 202.98 
L 414.063093 140.18 
L 414.351294 140.18 
L 414.639495 202.98 
L 414.927696 202.98 
L 415.215897 140.18 
L 416.368701 140.18 
L 416.656902 202.98 
L 416.945103 140.18 
L 418.674309 140.18 
L 418.96251 202.98 
L 419.250711 140.18 
L 419.538912 202.98 
L 419.827113 202.98 
L 420.115314 140.18 
L 420.403515 202.98 
L 420.691716 202.98 
L 420.979917 140.18 
L 422.420922 140.18 
L 422.709123 202.98 
L 422.997324 202.98 
L 423.285525 140.18 
L 424.438329 140.18 
L 424.72653 202.98 
L 425.014731 140.18 
L 425.591133 140.18 
L 425.879334 202.98 
L 426.167535 140.18 
L 427.320339 140.18 
L 427.60854 202.98 
L 428.473143 202.98 
L 428.761344 140.18 
L 429.049545 202.98 
L 429.049545 202.98 
" style="fill:none;stroke:#1f77b4;stroke-linecap:square;stroke-width:0.4;"/>
   </g>
   <g id="patch_8">
    <path d="M 42.01 206.12 
L 42.01 137.04 
" style="fill:none;stroke:#000000;stroke-linecap:square;stroke-linejoin:miter;stroke-width:0.8;"/>
   </g>
   <g id="patch_9">
    <path d="M 447.48 206.12 
L 447.48 137.04 
" style="fill:none;stroke:#000000;stroke-linecap:square;stroke-linejoin:miter;stroke-width:0.8;"/>
   </g>
   <g id="patch_10">
    <path d="M 42.01 206.12 
L 447.48 206.12 
" style="fill:none;stroke:#000000;stroke-linecap:square;stroke-linejoin:miter;stroke-width:0.8;"/>
   </g>
   <g id="patch_11">
    <path d="M 42.01 137.04 
L 447.48 137.04 
" style="fill:none;stroke:#000000;stroke-linecap:square;stroke-linejoin:miter;stroke-width:0.8;"/>
   </g>
   <g id="text_19">
    <!-- 64x upsampled, PDM encoded -->
    <defs>
     <path d="M 54.890625 54.6875 
L 35.109375 28.078125 
L 55.90625 0 
L 45.3125 0 
L 29.390625 21.484375 
L 13.484375 0 
L 2.875 0 
L 24.125 28.609375 
L 4.6875 54.6875 
L 15.28125 54.6875 
L 29.78125 35.203125 
L 44.28125 54.6875 
z
" id="DejaVuSans-120"/>
     <path d="M 8.5 21.578125 
L 8.5 54.6875 
L 17.484375 54.6875 
L 17.484375 21.921875 
Q 17.484375 14.15625 20.5 10.265625 
Q 23.53125 6.390625 29.59375 6.390625 
Q 36.859375 6.390625 41.078125 11.03125 
Q 45.3125 15.671875 45.3125 23.6875 
L 45.3125 54.6875 
L 54.296875 54.6875 
L 54.296875 0 
L 45.3125 0 
L 45.3125 8.40625 
Q 42.046875 3.421875 37.71875 1 
Q 33.40625 -1.421875 27.6875 -1.421875 
Q 18.265625 -1.421875 13.375 4.4375 
Q 8.5 10.296875 8.5 21.578125 
z
M 31.109375 56 
z
" id="DejaVuSans-117"/>
     <path d="M 18.109375 8.203125 
L 18.109375 -20.796875 
L 9.078125 -20.796875 
L 9.078125 54.6875 
L 18.109375 54.6875 
L 18.109375 46.390625 
Q 20.953125 51.265625 25.265625 53.625 
Q 29.59375 56 35.59375 56 
Q 45.5625 56 51.78125 48.09375 
Q 58.015625 40.1875 58.015625 27.296875 
Q 58.015625 14.40625 51.78125 6.484375 
Q 45.5625 -1.421875 35.59375 -1.421875 
Q 29.59375 -1.421875 25.265625 0.953125 
Q 20.953125 3.328125 18.109375 8.203125 
z
M 48.6875 27.296875 
Q 48.6875 37.203125 44.609375 42.84375 
Q 40.53125 48.484375 33.40625 48.484375 
Q 26.265625 48.484375 22.1875 42.84375 
Q 18.109375 37.203125 18.109375 27.296875 
Q 18.109375 17.390625 22.1875 11.75 
Q 26.265625 6.109375 33.40625 6.109375 
Q 40.53125 6.109375 44.609375 11.75 
Q 48.6875 17.390625 48.6875 27.296875 
z
" id="DejaVuSans-112"/>
     <path d="M 52 44.1875 
Q 55.375 50.25 60.0625 53.125 
Q 64.75 56 71.09375 56 
Q 79.640625 56 84.28125 50.015625 
Q 88.921875 44.046875 88.921875 33.015625 
L 88.921875 0 
L 79.890625 0 
L 79.890625 32.71875 
Q 79.890625 40.578125 77.09375 44.375 
Q 74.3125 48.1875 68.609375 48.1875 
Q 61.625 48.1875 57.5625 43.546875 
Q 53.515625 38.921875 53.515625 30.90625 
L 53.515625 0 
L 44.484375 0 
L 44.484375 32.71875 
Q 44.484375 40.625 41.703125 44.40625 
Q 38.921875 48.1875 33.109375 48.1875 
Q 26.21875 48.1875 22.15625 43.53125 
Q 18.109375 38.875 18.109375 30.90625 
L 18.109375 0 
L 9.078125 0 
L 9.078125 54.6875 
L 18.109375 54.6875 
L 18.109375 46.1875 
Q 21.1875 51.21875 25.484375 53.609375 
Q 29.78125 56 35.6875 56 
Q 41.65625 56 45.828125 52.96875 
Q 50 49.953125 52 44.1875 
z
" id="DejaVuSans-109"/>
     <path d="M 56.203125 29.59375 
L 56.203125 25.203125 
L 14.890625 25.203125 
Q 15.484375 15.921875 20.484375 11.0625 
Q 25.484375 6.203125 34.421875 6.203125 
Q 39.59375 6.203125 44.453125 7.46875 
Q 49.3125 8.734375 54.109375 11.28125 
L 54.109375 2.78125 
Q 49.265625 0.734375 44.1875 -0.34375 
Q 39.109375 -1.421875 33.890625 -1.421875 
Q 20.796875 -1.421875 13.15625 6.1875 
Q 5.515625 13.8125 5.515625 26.8125 
Q 5.515625 40.234375 12.765625 48.109375 
Q 20.015625 56 32.328125 56 
Q 43.359375 56 49.78125 48.890625 
Q 56.203125 41.796875 56.203125 29.59375 
z
M 47.21875 32.234375 
Q 47.125 39.59375 43.09375 43.984375 
Q 39.0625 48.390625 32.421875 48.390625 
Q 24.90625 48.390625 20.390625 44.140625 
Q 15.875 39.890625 15.1875 32.171875 
z
" id="DejaVuSans-101"/>
     <path d="M 45.40625 46.390625 
L 45.40625 75.984375 
L 54.390625 75.984375 
L 54.390625 0 
L 45.40625 0 
L 45.40625 8.203125 
Q 42.578125 3.328125 38.25 0.953125 
Q 33.9375 -1.421875 27.875 -1.421875 
Q 17.96875 -1.421875 11.734375 6.484375 
Q 5.515625 14.40625 5.515625 27.296875 
Q 5.515625 40.1875 11.734375 48.09375 
Q 17.96875 56 27.875 56 
Q 33.9375 56 38.25 53.625 
Q 42.578125 51.265625 45.40625 46.390625 
z
M 14.796875 27.296875 
Q 14.796875 17.390625 18.875 11.75 
Q 22.953125 6.109375 30.078125 6.109375 
Q 37.203125 6.109375 41.296875 11.75 
Q 45.40625 17.390625 45.40625 27.296875 
Q 45.40625 37.203125 41.296875 42.84375 
Q 37.203125 48.484375 30.078125 48.484375 
Q 22.953125 48.484375 18.875 42.84375 
Q 14.796875 37.203125 14.796875 27.296875 
z
" id="DejaVuSans-100"/>
     <path d="M 11.71875 12.40625 
L 22.015625 12.40625 
L 22.015625 4 
L 14.015625 -11.625 
L 7.71875 -11.625 
L 11.71875 4 
z
" id="DejaVuSans-44"/>
     <path d="M 19.671875 64.796875 
L 19.671875 37.40625 
L 32.078125 37.40625 
Q 38.96875 37.40625 42.71875 40.96875 
Q 46.484375 44.53125 46.484375 51.125 
Q 46.484375 57.671875 42.71875 61.234375 
Q 38.96875 64.796875 32.078125 64.796875 
z
M 9.8125 72.90625 
L 32.078125 72.90625 
Q 44.34375 72.90625 50.609375 67.359375 
Q 56.890625 61.8125 56.890625 51.125 
Q 56.890625 40.328125 50.609375 34.8125 
Q 44.34375 29.296875 32.078125 29.296875 
L 19.671875 29.296875 
L 19.671875 0 
L 9.8125 0 
z
" id="DejaVuSans-80"/>
     <path d="M 19.671875 64.796875 
L 19.671875 8.109375 
L 31.59375 8.109375 
Q 46.6875 8.109375 53.6875 14.9375 
Q 60.6875 21.78125 60.6875 36.53125 
Q 60.6875 51.171875 53.6875 57.984375 
Q 46.6875 64.796875 31.59375 64.796875 
z
M 9.8125 72.90625 
L 30.078125 72.90625 
Q 51.265625 72.90625 61.171875 64.09375 
Q 71.09375 55.28125 71.09375 36.53125 
Q 71.09375 17.671875 61.125 8.828125 
Q 51.171875 0 30.078125 0 
L 9.8125 0 
z
" id="DejaVuSans-68"/>
     <path d="M 9.8125 72.90625 
L 24.515625 72.90625 
L 43.109375 23.296875 
L 61.8125 72.90625 
L 76.515625 72.90625 
L 76.515625 0 
L 66.890625 0 
L 66.890625 64.015625 
L 48.09375 14.015625 
L 38.1875 14.015625 
L 19.390625 64.015625 
L 19.390625 0 
L 9.8125 0 
z
" id="DejaVuSans-77"/>
     <path d="M 48.78125 52.59375 
L 48.78125 44.1875 
Q 44.96875 46.296875 41.140625 47.34375 
Q 37.3125 48.390625 33.40625 48.390625 
Q 24.65625 48.390625 19.8125 42.84375 
Q 14.984375 37.3125 14.984375 27.296875 
Q 14.984375 17.28125 19.8125 11.734375 
Q 24.65625 6.203125 33.40625 6.203125 
Q 37.3125 6.203125 41.140625 7.25 
Q 44.96875 8.296875 48.78125 10.40625 
L 48.78125 2.09375 
Q 45.015625 0.34375 40.984375 -0.53125 
Q 36.96875 -1.421875 32.421875 -1.421875 
Q 20.0625 -1.421875 12.78125 6.34375 
Q 5.515625 14.109375 5.515625 27.296875 
Q 5.515625 40.671875 12.859375 48.328125 
Q 20.21875 56 33.015625 56 
Q 37.15625 56 41.109375 55.140625 
Q 45.0625 54.296875 48.78125 52.59375 
z
" id="DejaVuSans-99"/>
     <path d="M 30.609375 48.390625 
Q 23.390625 48.390625 19.1875 42.75 
Q 14.984375 37.109375 14.984375 27.296875 
Q 14.984375 17.484375 19.15625 11.84375 
Q 23.34375 6.203125 30.609375 6.203125 
Q 37.796875 6.203125 41.984375 11.859375 
Q 46.1875 17.53125 46.1875 27.296875 
Q 46.1875 37.015625 41.984375 42.703125 
Q 37.796875 48.390625 30.609375 48.390625 
z
M 30.609375 56 
Q 42.328125 56 49.015625 48.375 
Q 55.71875 40.765625 55.71875 27.296875 
Q 55.71875 13.875 49.015625 6.21875 
Q 42.328125 -1.421875 30.609375 -1.421875 
Q 18.84375 -1.421875 12.171875 6.21875 
Q 5.515625 13.875 5.515625 27.296875 
Q 5.515625 40.765625 12.171875 48.375 
Q 18.84375 56 30.609375 56 
z
" id="DejaVuSans-111"/>
    </defs>
    <g transform="translate(153.506563 131.04)scale(0.12 -0.12)">
     <use xlink:href="#DejaVuSans-54"/>
     <use x="63.623047" xlink:href="#DejaVuSans-52"/>
     <use x="127.246094" xlink:href="#DejaVuSans-120"/>
     <use x="186.425781" xlink:href="#DejaVuSans-32"/>
     <use x="218.212891" xlink:href="#DejaVuSans-117"/>
     <use x="281.591797" xlink:href="#DejaVuSans-112"/>
     <use x="345.068359" xlink:href="#DejaVuSans-115"/>
     <use x="397.167969" xlink:href="#DejaVuSans-97"/>
     <use x="458.447266" xlink:href="#DejaVuSans-109"/>
     <use x="555.859375" xlink:href="#DejaVuSans-112"/>
     <use x="619.335938" xlink:href="#DejaVuSans-108"/>
     <use x="647.119141" xlink:href="#DejaVuSans-101"/>
     <use x="708.642578" xlink:href="#DejaVuSans-100"/>
     <use x="772.119141" xlink:href="#DejaVuSans-44"/>
     <use x="803.90625" xlink:href="#DejaVuSans-32"/>
     <use x="835.693359" xlink:href="#DejaVuSans-80"/>
     <use x="895.996094" xlink:href="#DejaVuSans-68"/>
     <use x="972.998047" xlink:href="#DejaVuSans-77"/>
     <use x="1059.277344" xlink:href="#DejaVuSans-32"/>
     <use x="1091.064453" xlink:href="#DejaVuSans-101"/>
     <use x="1152.587891" xlink:href="#DejaVuSans-110"/>
     <use x="1215.966797" xlink:href="#DejaVuSans-99"/>
     <use x="1270.947266" xlink:href="#DejaVuSans-111"/>
     <use x="1332.128906" xlink:href="#DejaVuSans-100"/>
     <use x="1395.605469" xlink:href="#DejaVuSans-101"/>
     <use x="1457.128906" xlink:href="#DejaVuSans-100"/>
    </g>
   </g>
  </g>
  <g id="axes_3">
   <g id="patch_12">
    <path d="M 42.01 317.72 
L 447.48 317.72 
L 447.48 248.64 
L 42.01 248.64 
z
" style="fill:#ffffff;"/>
   </g>
   <g id="matplotlib.axis_5">
    <g id="xtick_12">
     <g id="line2d_20">
      <g>
       <use style="stroke:#000000;stroke-width:0.8;" x="90.172936" xlink:href="#m137d969a53" y="317.72"/>
      </g>
     </g>
     <g id="text_20">
      <!-- 0.2620 -->
      <g transform="translate(72.677623 332.318437)scale(0.1 -0.1)">
       <use xlink:href="#DejaVuSans-48"/>
       <use x="63.623047" xlink:href="#DejaVuSans-46"/>
       <use x="95.410156" xlink:href="#DejaVuSans-50"/>
       <use x="159.033203" xlink:href="#DejaVuSans-54"/>
       <use x="222.65625" xlink:href="#DejaVuSans-50"/>
       <use x="286.279297" xlink:href="#DejaVuSans-48"/>
      </g>
     </g>
    </g>
    <g id="xtick_13">
     <g id="line2d_21">
      <g>
       <use style="stroke:#000000;stroke-width:0.8;" x="164.277305" xlink:href="#m137d969a53" y="317.72"/>
      </g>
     </g>
     <g id="text_21">
      <!-- 0.2625 -->
      <g transform="translate(146.781992 332.318437)scale(0.1 -0.1)">
       <use xlink:href="#DejaVuSans-48"/>
       <use x="63.623047" xlink:href="#DejaVuSans-46"/>
       <use x="95.410156" xlink:href="#DejaVuSans-50"/>
       <use x="159.033203" xlink:href="#DejaVuSans-54"/>
       <use x="222.65625" xlink:href="#DejaVuSans-50"/>
       <use x="286.279297" xlink:href="#DejaVuSans-53"/>
      </g>
     </g>
    </g>
    <g id="xtick_14">
     <g id="line2d_22">
      <g>
       <use style="stroke:#000000;stroke-width:0.8;" x="238.381674" xlink:href="#m137d969a53" y="317.72"/>
      </g>
     </g>
     <g id="text_22">
      <!-- 0.2630 -->
      <g transform="translate(220.886361 332.318437)scale(0.1 -0.1)">
       <use xlink:href="#DejaVuSans-48"/>
       <use x="63.623047" xlink:href="#DejaVuSans-46"/>
       <use x="95.410156" xlink:href="#DejaVuSans-50"/>
       <use x="159.033203" xlink:href="#DejaVuSans-54"/>
       <use x="222.65625" xlink:href="#DejaVuSans-51"/>
       <use x="286.279297" xlink:href="#DejaVuSans-48"/>
      </g>
     </g>
    </g>
    <g id="xtick_15">
     <g id="line2d_23">
      <g>
       <use style="stroke:#000000;stroke-width:0.8;" x="312.486043" xlink:href="#m137d969a53" y="317.72"/>
      </g>
     </g>
     <g id="text_23">
      <!-- 0.2635 -->
      <g transform="translate(294.990731 332.318437)scale(0.1 -0.1)">
       <use xlink:href="#DejaVuSans-48"/>
       <use x="63.623047" xlink:href="#DejaVuSans-46"/>
       <use x="95.410156" xlink:href="#DejaVuSans-50"/>
       <use x="159.033203" xlink:href="#DejaVuSans-54"/>
       <use x="222.65625" xlink:href="#DejaVuSans-51"/>
       <use x="286.279297" xlink:href="#DejaVuSans-53"/>
      </g>
     </g>
    </g>
    <g id="xtick_16">
     <g id="line2d_24">
      <g>
       <use style="stroke:#000000;stroke-width:0.8;" x="386.590412" xlink:href="#m137d969a53" y="317.72"/>
      </g>
     </g>
     <g id="text_24">
      <!-- 0.2640 -->
      <g transform="translate(369.0951 332.318437)scale(0.1 -0.1)">
       <use xlink:href="#DejaVuSans-48"/>
       <use x="63.623047" xlink:href="#DejaVuSans-46"/>
       <use x="95.410156" xlink:href="#DejaVuSans-50"/>
       <use x="159.033203" xlink:href="#DejaVuSans-54"/>
       <use x="222.65625" xlink:href="#DejaVuSans-52"/>
       <use x="286.279297" xlink:href="#DejaVuSans-48"/>
      </g>
     </g>
    </g>
   </g>
   <g id="matplotlib.axis_6">
    <g id="ytick_7">
     <g id="line2d_25">
      <g>
       <use style="stroke:#000000;stroke-width:0.8;" x="42.01" xlink:href="#m3153bd20da" y="305.848493"/>
      </g>
     </g>
     <g id="text_25">
      <!-- −0.5 -->
      <g transform="translate(10.727187 309.647712)scale(0.1 -0.1)">
       <use xlink:href="#DejaVuSans-8722"/>
       <use x="83.789062" xlink:href="#DejaVuSans-48"/>
       <use x="147.412109" xlink:href="#DejaVuSans-46"/>
       <use x="179.199219" xlink:href="#DejaVuSans-53"/>
      </g>
     </g>
    </g>
    <g id="ytick_8">
     <g id="line2d_26">
      <g>
       <use style="stroke:#000000;stroke-width:0.8;" x="42.01" xlink:href="#m3153bd20da" y="279.034705"/>
      </g>
     </g>
     <g id="text_26">
      <!-- 0.0 -->
      <g transform="translate(19.106875 282.833924)scale(0.1 -0.1)">
       <use xlink:href="#DejaVuSans-48"/>
       <use x="63.623047" xlink:href="#DejaVuSans-46"/>
       <use x="95.410156" xlink:href="#DejaVuSans-48"/>
      </g>
     </g>
    </g>
    <g id="ytick_9">
     <g id="line2d_27">
      <g>
       <use style="stroke:#000000;stroke-width:0.8;" x="42.01" xlink:href="#m3153bd20da" y="252.220916"/>
      </g>
     </g>
     <g id="text_27">
      <!-- 0.5 -->
      <g transform="translate(19.106875 256.020135)scale(0.1 -0.1)">
       <use xlink:href="#DejaVuSans-48"/>
       <use x="63.623047" xlink:href="#DejaVuSans-46"/>
       <use x="95.410156" xlink:href="#DejaVuSans-53"/>
      </g>
     </g>
    </g>
   </g>
   <g id="line2d_28">
    <path clip-path="url(#pafd75f72f5)" d="M 60.440455 314.58 
L 79.840933 295.700013 
L 99.241411 277.518302 
L 118.64189 261.770405 
L 138.042368 260.151317 
L 157.442847 258.809351 
L 176.843325 257.267881 
L 196.243804 251.78 
L 215.644282 263.082302 
L 235.044761 284.162039 
L 254.445239 300.572234 
L 273.845718 305.737844 
L 293.246196 304.207075 
L 312.646675 300.421107 
L 332.047153 276.088216 
L 351.447632 260.469566 
L 370.84811 261.831719 
L 390.248589 258.052881 
L 409.649067 255.309875 
L 429.049545 255.834298 
" style="fill:none;stroke:#1f77b4;stroke-linecap:square;stroke-width:1.5;"/>
   </g>
   <g id="patch_13">
    <path d="M 42.01 317.72 
L 42.01 248.64 
" style="fill:none;stroke:#000000;stroke-linecap:square;stroke-linejoin:miter;stroke-width:0.8;"/>
   </g>
   <g id="patch_14">
    <path d="M 447.48 317.72 
L 447.48 248.64 
" style="fill:none;stroke:#000000;stroke-linecap:square;stroke-linejoin:miter;stroke-width:0.8;"/>
   </g>
   <g id="patch_15">
    <path d="M 42.01 317.72 
L 447.48 317.72 
" style="fill:none;stroke:#000000;stroke-linecap:square;stroke-linejoin:miter;stroke-width:0.8;"/>
   </g>
   <g id="patch_16">
    <path d="M 42.01 248.64 
L 447.48 248.64 
" style="fill:none;stroke:#000000;stroke-linecap:square;stroke-linejoin:miter;stroke-width:0.8;"/>
   </g>
   <g id="text_28">
    <!-- Decoded signal -->
    <g transform="translate(198.498125 242.64)scale(0.12 -0.12)">
     <use xlink:href="#DejaVuSans-68"/>
     <use x="77.001953" xlink:href="#DejaVuSans-101"/>
     <use x="138.525391" xlink:href="#DejaVuSans-99"/>
     <use x="193.505859" xlink:href="#DejaVuSans-111"/>
     <use x="254.6875" xlink:href="#DejaVuSans-100"/>
     <use x="318.164062" xlink:href="#DejaVuSans-101"/>
     <use x="379.6875" xlink:href="#DejaVuSans-100"/>
     <use x="443.164062" xlink:href="#DejaVuSans-32"/>
     <use x="474.951172" xlink:href="#DejaVuSans-115"/>
     <use x="527.050781" xlink:href="#DejaVuSans-105"/>
     <use x="554.833984" xlink:href="#DejaVuSans-103"/>
     <use x="618.310547" xlink:href="#DejaVuSans-110"/>
     <use x="681.689453" xlink:href="#DejaVuSans-97"/>
     <use x="742.96875" xlink:href="#DejaVuSans-108"/>
    </g>
   </g>
  </g>
 </g>
 <defs>
  <clipPath id="pdd75e4afa2">
   <rect height="69.08" width="405.47" x="42.01" y="25.44"/>
  </clipPath>
  <clipPath id="p58e2846f01">
   <rect height="69.08" width="405.47" x="42.01" y="137.04"/>
  </clipPath>
  <clipPath id="pafd75f72f5">
   <rect height="69.08" width="405.47" x="42.01" y="248.64"/>
  </clipPath>
 </defs>
</svg>
